<svg width="20" height="20" viewBox="0 0 20 20" fill="none" xmlns="http://www.w3.org/2000/svg">
<path d="M14.5833 3.33333C14.5833 4.48393 15.5161 5.41667 16.6667 5.41667C17.8173 5.41667 18.75 4.48393 18.75 3.33333C18.75 2.18274 17.8173 1.25 16.6667 1.25C15.5161 1.25 14.5833 2.18274 14.5833 3.33333ZM15.8333 3.33333C15.8333 3.79357 16.2064 4.16667 16.6667 4.16667C17.1269 4.16667 17.5 3.79357 17.5 3.33333C17.5 2.8731 17.1269 2.5 16.6667 2.5C16.2064 2.5 15.8333 2.8731 15.8333 3.33333ZM13.125 2.5C13.125 2.84518 12.8452 3.125 12.5 3.125H10C8.42369 3.125 7.29166 3.12586 6.41504 3.22083C5.55011 3.31454 5.00826 3.49383 4.58493 3.8014C4.28426 4.01985 4.01985 4.28426 3.8014 4.58493C3.49383 5.00826 3.31454 5.55011 3.22083 6.41504C3.12586 7.29166 3.125 8.42369 3.125 10C3.125 11.5763 3.12586 12.7083 3.22083 13.585C3.31454 14.4499 3.49383 14.9917 3.8014 15.4151C4.01985 15.7157 4.28426 15.9802 4.58493 16.1986C5.00826 16.5062 5.55011 16.6855 6.41504 16.7792C7.29166 16.8741 8.42369 16.875 10 16.875C11.5763 16.875 12.7083 16.8741 13.585 16.7792C14.4499 16.6855 14.9917 16.5062 15.4151 16.1986C15.7157 15.9802 15.9802 15.7157 16.1986 15.4151C16.5062 14.9917 16.6855 14.4499 16.7792 13.585C16.8741 12.7083 16.875 11.5763 16.875 10V7.5C16.875 7.15482 17.1548 6.875 17.5 6.875C17.8452 6.875 18.125 7.15482 18.125 7.5V10.0378V10.0378C18.125 11.5682 18.125 12.7679 18.0219 13.7196C17.9167 14.6909 17.6981 15.4779 17.2099 16.1498C16.9143 16.5566 16.5566 16.9143 16.1498 17.2099C15.4779 17.6981 14.6909 17.9167 13.7196 18.0219C12.7679 18.125 11.5682 18.125 10.0378 18.125H10.0377H9.96221H9.96216C8.43178 18.125 7.23215 18.125 6.2804 18.0219C5.30912 17.9167 4.52213 17.6981 3.8502 17.2099C3.44341 16.9143 3.08568 16.5566 2.79013 16.1498C2.30194 15.4779 2.08334 14.6909 1.97811 13.7196C1.87499 12.7678 1.87499 11.5682 1.875 10.0377V10.0377V9.96229V9.96228C1.87499 8.43184 1.87499 7.23217 1.97811 6.2804C2.08334 5.30912 2.30194 4.52213 2.79013 3.8502C3.08568 3.44341 3.44341 3.08567 3.8502 2.79013C4.52213 2.30194 5.30912 2.08334 6.2804 1.97811C7.23218 1.87499 8.43185 1.87499 9.96229 1.875L12.5 1.875C12.8452 1.875 13.125 2.15482 13.125 2.5ZM5.55808 12.9421C5.24818 12.7901 5.12019 12.4156 5.27221 12.1057L6.48915 9.62483C7.34129 7.88764 9.84584 7.97248 10.5785 9.76335C10.9028 10.5561 12.0114 10.5936 12.3886 9.82467L13.6055 7.3438C13.7576 7.0339 14.132 6.9059 14.4419 7.05792C14.7518 7.20994 14.8798 7.5844 14.7278 7.8943L13.5108 10.3752C12.6587 12.1124 10.1542 12.0275 9.42153 10.2366C9.09724 9.44392 7.9886 9.40636 7.6114 10.1753L6.39446 12.6562C6.24244 12.9661 5.86799 13.0941 5.55808 12.9421Z" fill="#0E6DFC"/>
<path d="M14.5833 3.33333C14.5833 4.48393 15.5161 5.41667 16.6667 5.41667C17.8173 5.41667 18.75 4.48393 18.75 3.33333C18.75 2.18274 17.8173 1.25 16.6667 1.25C15.5161 1.25 14.5833 2.18274 14.5833 3.33333ZM15.8333 3.33333C15.8333 3.79357 16.2064 4.16667 16.6667 4.16667C17.1269 4.16667 17.5 3.79357 17.5 3.33333C17.5 2.8731 17.1269 2.5 16.6667 2.5C16.2064 2.5 15.8333 2.8731 15.8333 3.33333ZM13.125 2.5C13.125 2.84518 12.8452 3.125 12.5 3.125H10C8.42369 3.125 7.29166 3.12586 6.41504 3.22083C5.55011 3.31454 5.00826 3.49383 4.58493 3.8014C4.28426 4.01985 4.01985 4.28426 3.8014 4.58493C3.49383 5.00826 3.31454 5.55011 3.22083 6.41504C3.12586 7.29166 3.125 8.42369 3.125 10C3.125 11.5763 3.12586 12.7083 3.22083 13.585C3.31454 14.4499 3.49383 14.9917 3.8014 15.4151C4.01985 15.7157 4.28426 15.9802 4.58493 16.1986C5.00826 16.5062 5.55011 16.6855 6.41504 16.7792C7.29166 16.8741 8.42369 16.875 10 16.875C11.5763 16.875 12.7083 16.8741 13.585 16.7792C14.4499 16.6855 14.9917 16.5062 15.4151 16.1986C15.7157 15.9802 15.9802 15.7157 16.1986 15.4151C16.5062 14.9917 16.6855 14.4499 16.7792 13.585C16.8741 12.7083 16.875 11.5763 16.875 10V7.5C16.875 7.15482 17.1548 6.875 17.5 6.875C17.8452 6.875 18.125 7.15482 18.125 7.5V10.0378V10.0378C18.125 11.5682 18.125 12.7679 18.0219 13.7196C17.9167 14.6909 17.6981 15.4779 17.2099 16.1498C16.9143 16.5566 16.5566 16.9143 16.1498 17.2099C15.4779 17.6981 14.6909 17.9167 13.7196 18.0219C12.7679 18.125 11.5682 18.125 10.0378 18.125H10.0377H9.96221H9.96216C8.43178 18.125 7.23215 18.125 6.2804 18.0219C5.30912 17.9167 4.52213 17.6981 3.8502 17.2099C3.44341 16.9143 3.08568 16.5566 2.79013 16.1498C2.30194 15.4779 2.08334 14.6909 1.97811 13.7196C1.87499 12.7678 1.87499 11.5682 1.875 10.0377V10.0377V9.96229V9.96228C1.87499 8.43184 1.87499 7.23217 1.97811 6.2804C2.08334 5.30912 2.30194 4.52213 2.79013 3.8502C3.08568 3.44341 3.44341 3.08567 3.8502 2.79013C4.52213 2.30194 5.30912 2.08334 6.2804 1.97811C7.23218 1.87499 8.43185 1.87499 9.96229 1.875L12.5 1.875C12.8452 1.875 13.125 2.15482 13.125 2.5ZM5.55808 12.9421C5.24818 12.7901 5.12019 12.4156 5.27221 12.1057L6.48915 9.62483C7.34129 7.88764 9.84584 7.97248 10.5785 9.76335C10.9028 10.5561 12.0114 10.5936 12.3886 9.82467L13.6055 7.3438C13.7576 7.0339 14.132 6.9059 14.4419 7.05792C14.7518 7.20994 14.8798 7.5844 14.7278 7.8943L13.5108 10.3752C12.6587 12.1124 10.1542 12.0275 9.42153 10.2366C9.09724 9.44392 7.9886 9.40636 7.6114 10.1753L6.39446 12.6562C6.24244 12.9661 5.86799 13.0941 5.55808 12.9421Z" stroke="#0E6EFF"/>
</svg>
