<svg width="13" height="18" viewBox="0 0 13 18" fill="none" xmlns="http://www.w3.org/2000/svg">
<path fill-rule="evenodd" clip-rule="evenodd" d="M6.365 0.375014C4.9431 0.37479 4.07542 0.374653 3.35249 0.609548C1.89373 1.08353 0.750034 2.22722 0.276052 3.68599C0.0411572 4.40892 0.0412937 5.2766 0.0415175 6.6985L0.0415314 13.0178C0.0415259 13.7926 0.0415214 14.4118 0.0790819 14.8887C0.116093 15.3585 0.19481 15.8042 0.433356 16.1579C0.91203 16.8675 1.74628 17.2512 2.59659 17.1528C3.02033 17.1038 3.40994 16.8735 3.79077 16.5958C4.17726 16.314 4.64742 15.911 5.23568 15.4068L5.25719 15.3884C5.83284 14.8949 5.99671 14.7682 6.15283 14.713C6.37738 14.6337 6.62235 14.6337 6.8469 14.713C7.00302 14.7682 7.16689 14.8949 7.74254 15.3884L7.76404 15.4068C8.3523 15.911 8.82246 16.314 9.20896 16.5958C9.58979 16.8735 9.9794 17.1038 10.4031 17.1528C11.2534 17.2512 12.0877 16.8675 12.5664 16.1579C12.8049 15.8042 12.8836 15.3586 12.9206 14.8887C12.9582 14.4119 12.9582 13.7926 12.9582 13.0179L12.9582 6.6985C12.9584 5.2766 12.9586 4.40892 12.7237 3.68599C12.2497 2.22722 11.106 1.08353 9.64724 0.609548C8.92431 0.374653 8.05663 0.37479 6.63473 0.375014H6.365ZM3.73876 1.79837C4.24852 1.63274 4.90015 1.62503 6.49987 1.62503C8.09958 1.62503 8.75121 1.63274 9.26097 1.79837C10.3392 2.1487 11.1845 2.99404 11.5349 4.07226C11.7005 4.58202 11.7082 5.23365 11.7082 6.83336V12.9895C11.7082 13.7991 11.7077 14.3688 11.6745 14.7905C11.6403 15.2251 11.5765 15.39 11.5301 15.4588C11.3125 15.7814 10.9333 15.9558 10.5468 15.9111C10.4644 15.9016 10.2976 15.8426 9.94541 15.5858C9.60355 15.3365 9.17071 14.9661 8.55603 14.4393L8.47335 14.3683C8.0216 13.9804 7.6693 13.6779 7.26335 13.5344C6.76933 13.3599 6.2304 13.3599 5.73638 13.5344C5.33043 13.6779 4.97813 13.9804 4.52638 14.3683L4.4437 14.4393C3.82902 14.9661 3.39618 15.3365 3.05432 15.5858C2.70211 15.8426 2.53537 15.9016 2.45292 15.9111C2.06642 15.9558 1.68721 15.7814 1.46963 15.4588C1.42322 15.39 1.35945 15.2251 1.32522 14.7905C1.292 14.3688 1.29153 13.7991 1.29153 12.9895V6.83336C1.29153 5.23365 1.29924 4.58202 1.46487 4.07226C1.81521 2.99404 2.66055 2.1487 3.73876 1.79837Z" fill="white"/>
</svg>
