<svg width="20" height="19" viewBox="0 0 20 19" fill="none" xmlns="http://www.w3.org/2000/svg">
<path d="M4.80429 13.9876L5.25511 13.3883L4.80429 13.9876ZM2.51733 8.54296L1.78799 8.71776L2.51733 8.54296ZM4.65437 13.8694L5.13217 13.2913L5.13217 13.2913L4.65437 13.8694ZM18.3489 8.95195L17.6196 8.77715L18.3489 8.95195ZM16.5744 13.6311L16.049 13.0959L16.5744 13.6311ZM15.8666 14.1893L15.4686 13.5536L15.4686 13.5536L15.8666 14.1893ZM18.2847 5.62982L18.7994 5.08436L18.2847 5.62982ZM18.5861 6.01205L17.9357 6.3855L18.5861 6.01205ZM1.56061 1.4846C1.46015 1.08276 1.05295 0.838435 0.651106 0.938897C0.24926 1.03936 0.0049394 1.44656 0.105401 1.84841L1.56061 1.4846ZM13.333 12.4165C13.7472 12.4165 14.083 12.0807 14.083 11.6665C14.083 11.2523 13.7472 10.9165 13.333 10.9165V12.4165ZM8.33301 10.9165C7.91879 10.9165 7.58301 11.2523 7.58301 11.6665C7.58301 12.0807 7.91879 12.4165 8.33301 12.4165V10.9165ZM1.7102 5.92528H15.3704V4.42528H1.7102V5.92528ZM10.9027 14.0744H10.4821V15.5744H10.9027V14.0744ZM3.24668 8.36816L2.43955 5.00047L0.980855 5.35008L1.78799 8.71776L3.24668 8.36816ZM10.4821 14.0744C8.94264 14.0744 7.85232 14.0732 7.00565 13.9748C6.17795 13.8786 5.6654 13.6969 5.25511 13.3883L4.35347 14.587C5.05568 15.1152 5.86027 15.3518 6.83248 15.4648C7.78571 15.5756 8.97806 15.5744 10.4821 15.5744V14.0744ZM1.78799 8.71776C2.13854 10.1804 2.41529 11.3402 2.7452 12.2414C3.08167 13.1604 3.49929 13.8877 4.17656 14.4475L5.13217 13.2913C4.73645 12.9642 4.44023 12.5082 4.15377 11.7257C3.86075 10.9253 3.60548 9.86525 3.24668 8.36816L1.78799 8.71776ZM5.25511 13.3883C5.2134 13.3569 5.17241 13.3246 5.13217 13.2913L4.17656 14.4475C4.23446 14.4954 4.29344 14.5419 4.35347 14.587L5.25511 13.3883ZM17.6196 8.77715C17.3092 10.0722 17.0885 10.9891 16.8437 11.69C16.6039 12.3765 16.3627 12.7878 16.049 13.0959L17.0998 14.1663C17.64 13.6359 17.9793 12.9879 18.2598 12.1846C18.5354 11.3956 18.775 10.3922 19.0783 9.12676L17.6196 8.77715ZM10.9027 15.5744C12.204 15.5744 13.2356 15.5753 14.0671 15.4912C14.9137 15.4056 15.6229 15.2267 16.2646 14.825L15.4686 13.5536C15.0959 13.787 14.6397 13.9256 13.9162 13.9988C13.1776 14.0735 12.2344 14.0744 10.9027 14.0744V15.5744ZM16.049 13.0959C15.8726 13.269 15.678 13.4225 15.4686 13.5536L16.2646 14.825C16.566 14.6363 16.846 14.4154 17.0998 14.1663L16.049 13.0959ZM15.3704 5.92528C16.2008 5.92528 16.7547 5.9266 17.1642 5.97657C17.5614 6.02504 17.6978 6.10724 17.7699 6.17527L18.7994 5.08436C18.3899 4.69786 17.88 4.55279 17.3459 4.48762C16.8242 4.42395 16.1618 4.42528 15.3704 4.42528V5.92528ZM19.0783 9.12676C19.2627 8.35716 19.4184 7.71334 19.4781 7.19115C19.5392 6.65657 19.5169 6.12695 19.2365 5.63859L17.9357 6.3855C17.9851 6.47147 18.0332 6.62327 17.9878 7.0208C17.9409 7.43072 17.8131 7.96969 17.6196 8.77715L19.0783 9.12676ZM17.7699 6.17527C17.8352 6.23686 17.891 6.30769 17.9357 6.3855L19.2365 5.63859C19.1187 5.43345 18.9715 5.24672 18.7994 5.08436L17.7699 6.17527ZM2.43781 4.99337L1.56061 1.4846L0.105401 1.84841L0.982594 5.35718L2.43781 4.99337ZM13.333 10.9165H8.33301V12.4165H13.333V10.9165Z" fill="#00CD46"/>
<path d="M8.72802 17.4558C8.72802 17.9403 8.33529 18.333 7.85083 18.333C7.36637 18.333 6.97363 17.9403 6.97363 17.4558C6.97363 16.9713 7.36637 16.5786 7.85083 16.5786C8.33529 16.5786 8.72802 16.9713 8.72802 17.4558Z" fill="#00CD46"/>
<path d="M13.9912 17.4558C13.9912 17.9403 13.5984 18.333 13.114 18.333C12.6295 18.333 12.2368 17.9403 12.2368 17.4558C12.2368 16.9713 12.6295 16.5786 13.114 16.5786C13.5984 16.5786 13.9912 16.9713 13.9912 17.4558Z" fill="#00CD46"/>
</svg>
