<svg width="44" height="43" viewBox="0 0 44 43" fill="none" xmlns="http://www.w3.org/2000/svg">
<circle cx="22.2778" cy="21.5234" r="21.3872" fill="#00C28C"/>
<g clip-path="url(#clip0_359_8351)">
<path d="M22.2773 18.7734C20.4824 18.7734 19.0273 20.2285 19.0273 22.0234C19.0273 23.8184 20.4824 25.2734 22.2773 25.2734C24.0723 25.2734 25.5273 23.8184 25.5273 22.0234C25.5273 20.2285 24.0723 18.7734 22.2773 18.7734Z" fill="white"/>
<path fill-rule="evenodd" clip-rule="evenodd" d="M19.5273 9.77344C18.1466 9.77344 17.0273 10.8927 17.0273 12.2734V12.452C17.0273 12.9057 16.6596 13.2734 16.2059 13.2734C13.622 13.2734 11.5273 15.3681 11.5273 17.952V22.5628C11.5273 24.1662 11.5273 25.4231 11.6228 26.4273C11.7201 27.4509 11.9219 28.289 12.3747 29.0278C12.8488 29.8015 13.4993 30.452 14.273 30.9261C15.0118 31.3789 15.8499 31.5807 16.8735 31.678C17.8776 31.7734 19.1346 31.7734 20.7379 31.7734H23.8167C25.4201 31.7734 26.6771 31.7734 27.6812 31.678C28.7048 31.5807 29.5429 31.3789 30.2817 30.9261C31.0554 30.452 31.7059 29.8015 32.18 29.0278C32.6328 28.289 32.8346 27.4509 32.9319 26.4273C33.0274 25.4232 33.0273 24.1662 33.0273 22.5629V17.952C33.0273 15.3681 30.9327 13.2734 28.3488 13.2734C27.8951 13.2734 27.5273 12.9057 27.5273 12.452V12.2734C27.5273 10.8927 26.4081 9.77344 25.0273 9.77344H19.5273ZM17.5273 22.0234C17.5273 19.4001 19.654 17.2734 22.2773 17.2734C24.9007 17.2734 27.0273 19.4001 27.0273 22.0234C27.0273 24.6468 24.9007 26.7734 22.2773 26.7734C19.654 26.7734 17.5273 24.6468 17.5273 22.0234ZM28.2773 19.0234C27.7251 19.0234 27.2773 18.5757 27.2773 18.0234C27.2773 17.4712 27.7251 17.0234 28.2773 17.0234C28.8296 17.0234 29.2773 17.4712 29.2773 18.0234C29.2773 18.5757 28.8296 19.0234 28.2773 19.0234Z" fill="white"/>
</g>
<defs>
<clipPath id="clip0_359_8351">
<rect width="24" height="24" fill="white" transform="translate(10.2773 9.52344)"/>
</clipPath>
</defs>
</svg>
