<svg width="24" height="18" viewBox="0 0 24 18" fill="none" xmlns="http://www.w3.org/2000/svg">
<path d="M14.25 4.59424C14.25 5.83688 13.2426 6.84424 12 6.84424V8.34424C14.0711 8.34424 15.75 6.66531 15.75 4.59424H14.25ZM12 6.84424C10.7574 6.84424 9.75 5.83688 9.75 4.59424H8.25C8.25 6.66531 9.92893 8.34424 12 8.34424V6.84424ZM9.75 4.59424C9.75 3.3516 10.7574 2.34424 12 2.34424V0.844238C9.92893 0.844238 8.25 2.52317 8.25 4.59424H9.75ZM12 2.34424C13.2426 2.34424 14.25 3.3516 14.25 4.59424H15.75C15.75 2.52317 14.0711 0.844238 12 0.844238V2.34424ZM9 11.3442H15V9.84424H9V11.3442ZM15 15.8442H9V17.3442H15V15.8442ZM9 15.8442C7.75736 15.8442 6.75 14.8369 6.75 13.5942H5.25C5.25 15.6653 6.92893 17.3442 9 17.3442V15.8442ZM17.25 13.5942C17.25 14.8369 16.2426 15.8442 15 15.8442V17.3442C17.0711 17.3442 18.75 15.6653 18.75 13.5942H17.25ZM15 11.3442C16.2426 11.3442 17.25 12.3516 17.25 13.5942H18.75C18.75 11.5232 17.0711 9.84424 15 9.84424V11.3442ZM9 9.84424C6.92893 9.84424 5.25 11.5232 5.25 13.5942H6.75C6.75 12.3516 7.75736 11.3442 9 11.3442V9.84424Z" fill="white"/>
<path d="M7.75214 7.23289C7.59441 6.97951 7.29846 6.84424 7 6.84424C5.75736 6.84424 4.75 5.83688 4.75 4.59424C4.75 3.3516 5.75736 2.34424 7 2.34424C7.29846 2.34424 7.59441 2.20897 7.75214 1.95558C7.75912 1.94438 7.76613 1.9332 7.7732 1.92206C8.0358 1.50755 7.90275 0.920639 7.415 0.866942C7.27873 0.851939 7.14027 0.844238 7 0.844238C4.92893 0.844238 3.25 2.52317 3.25 4.59424C3.25 6.66531 4.92893 8.34424 7 8.34424C7.14027 8.34424 7.27873 8.33654 7.415 8.32154C7.90275 8.26784 8.0358 7.68093 7.7732 7.26642C7.76614 7.25528 7.75912 7.2441 7.75214 7.23289Z" fill="white"/>
<path d="M4.70829 15.1611C4.59477 14.9717 4.39439 14.8442 4.17359 14.8442H4C2.75736 14.8442 1.75 13.8369 1.75 12.5942C1.75 11.3516 2.75736 10.3442 4 10.3442H4.17359C4.39439 10.3442 4.59477 10.2168 4.70829 10.0274C4.98539 9.56506 4.68468 8.84424 4.14569 8.84424H4C1.92893 8.84424 0.25 10.5232 0.25 12.5942C0.25 14.6653 1.92893 16.3442 4 16.3442H4.14569C4.68469 16.3442 4.98539 15.6234 4.70829 15.1611Z" fill="white"/>
<path d="M16.2268 7.26642C15.9642 7.68093 16.0973 8.26784 16.585 8.32154C16.7213 8.33654 16.8597 8.34424 17 8.34424C19.0711 8.34424 20.75 6.66531 20.75 4.59424C20.75 2.52317 19.0711 0.844238 17 0.844238C16.8597 0.844238 16.7213 0.851939 16.585 0.866942C16.0973 0.920639 15.9642 1.50755 16.2268 1.92205C16.2339 1.9332 16.2409 1.94438 16.2479 1.95558C16.4056 2.20896 16.7015 2.34424 17 2.34424C18.2426 2.34424 19.25 3.3516 19.25 4.59424C19.25 5.83688 18.2426 6.84424 17 6.84424C16.7015 6.84424 16.4056 6.97951 16.2479 7.23289C16.2409 7.2441 16.2339 7.25527 16.2268 7.26642Z" fill="white"/>
<path d="M19.2917 15.1611C19.0146 15.6234 19.3153 16.3442 19.8543 16.3442H20C22.0711 16.3442 23.75 14.6653 23.75 12.5942C23.75 10.5232 22.0711 8.84424 20 8.84424H19.8543C19.3153 8.84424 19.0146 9.56506 19.2917 10.0274C19.4052 10.2168 19.6056 10.3442 19.8264 10.3442H20C21.2426 10.3442 22.25 11.3516 22.25 12.5942C22.25 13.8369 21.2426 14.8442 20 14.8442H19.8264C19.6056 14.8442 19.4052 14.9717 19.2917 15.1611Z" fill="white"/>
</svg>
