<svg width="253" height="253" viewBox="0 0 253 253" fill="none" xmlns="http://www.w3.org/2000/svg">
<circle cx="126.5" cy="126.177" r="125.381" stroke="#00C28C" stroke-opacity="0.1"/>
<circle cx="126.5" cy="126.177" r="90.6021" stroke="#00C28C" stroke-opacity="0.2"/>
<circle cx="126.5" cy="126.177" r="48.5175" fill="#00C28C"/>
<path fill-rule="evenodd" clip-rule="evenodd" d="M126.5 136.803C124.733 136.803 123.152 136.032 122.099 134.819C121.434 136.001 120.137 136.803 118.646 136.803C116.477 136.803 114.719 135.106 114.719 133.011V123.678C114.719 121.584 116.477 119.886 118.646 119.886C120.147 119.886 121.451 120.7 122.112 121.895C122.22 121.723 122.337 121.541 122.462 121.344L125.215 117.024C125.699 116.265 126.556 115.803 127.479 115.803C129.108 115.803 130.354 117.205 130.106 118.76L129.812 120.603C129.579 122.066 130.752 123.386 132.286 123.386H133.119C136.858 123.386 139.29 127.186 137.618 130.415L136.23 133.095C135.054 135.367 132.648 136.803 130.016 136.803H126.5ZM126.759 117.942C126.913 117.7 127.185 117.553 127.479 117.553C127.997 117.553 128.393 117.999 128.315 118.494L128.021 120.337C127.619 122.86 129.641 125.136 132.286 125.136H133.119C135.511 125.136 137.067 127.567 135.997 129.632L134.609 132.312C133.739 133.992 131.961 135.053 130.016 135.053H126.5C124.331 135.053 122.573 133.356 122.573 131.261V127.255C122.573 125.884 122.578 125.332 122.702 124.81C122.741 124.644 122.789 124.48 122.846 124.318C123.024 123.811 123.319 123.338 124.064 122.17L126.759 117.942ZM118.646 121.636C119.814 121.636 120.76 122.551 120.76 123.678V133.011C120.76 134.139 119.814 135.053 118.646 135.053C117.478 135.053 116.531 134.139 116.531 133.011V123.678C116.531 122.551 117.478 121.636 118.646 121.636Z" fill="white"/>
</svg>
