<svg width="16" height="19" viewBox="0 0 16 19" fill="none" xmlns="http://www.w3.org/2000/svg">
<path fill-rule="evenodd" clip-rule="evenodd" d="M7.95768 0.974365C5.77155 0.974365 3.99935 2.74657 3.99935 4.9327V5.14103H1.29102C0.945838 5.14103 0.666016 5.42085 0.666016 5.76603C0.666016 6.11121 0.945838 6.39103 1.29102 6.39103H14.6243C14.9695 6.39103 15.2493 6.11121 15.2493 5.76603C15.2493 5.42085 14.9695 5.14103 14.6243 5.14103H11.916V4.9327C11.916 2.74657 10.1438 0.974365 7.95768 0.974365ZM7.95768 2.22437C9.45345 2.22437 10.666 3.43693 10.666 4.9327V5.14103H5.24935V4.9327C5.24935 3.43693 6.46191 2.22437 7.95768 2.22437Z" fill="#00C28C"/>
<path d="M2.74655 7.37358C2.7139 7.02995 2.40886 6.77785 2.06523 6.8105C1.7216 6.84315 1.4695 7.14819 1.50215 7.49182C1.58088 8.32038 1.72295 9.34129 1.90558 10.6536L2.1402 12.3395C2.36451 13.9518 2.49172 14.8661 2.76693 15.6152C3.2791 17.0092 4.19273 18.1267 5.36773 18.6226C6.00579 18.8918 6.73562 18.8915 7.82212 18.8911H8.09324C9.17975 18.8915 9.90958 18.8918 10.5476 18.6226C11.7226 18.1267 12.6363 17.0092 13.1484 15.6152C13.4236 14.8661 13.5509 13.9518 13.7752 12.3394L14.0098 10.6536C14.1924 9.3413 14.3345 8.32038 14.4132 7.49182C14.4459 7.14819 14.1938 6.84315 13.8501 6.8105C13.5065 6.77785 13.2015 7.02995 13.1688 7.37358C13.093 8.17188 12.9548 9.16605 12.7696 10.4961L12.551 12.067C12.3089 13.8067 12.1981 14.5773 11.9751 15.1841C11.5452 16.3542 10.8304 17.1465 10.0617 17.4709C9.68649 17.6292 9.23199 17.641 7.95768 17.641C6.68338 17.641 6.22888 17.6292 5.85371 17.4709C5.08501 17.1465 4.37015 16.3542 3.94024 15.1841C3.71731 14.5773 3.60644 13.8067 3.36433 12.067L3.14572 10.4961C2.96061 9.16606 2.8224 8.17189 2.74655 7.37358Z" fill="#00C28C"/>
<path fill-rule="evenodd" clip-rule="evenodd" d="M7.95768 0.974365C5.77155 0.974365 3.99935 2.74657 3.99935 4.9327V5.14103H1.29102C0.945838 5.14103 0.666016 5.42085 0.666016 5.76603C0.666016 6.11121 0.945838 6.39103 1.29102 6.39103H14.6243C14.9695 6.39103 15.2493 6.11121 15.2493 5.76603C15.2493 5.42085 14.9695 5.14103 14.6243 5.14103H11.916V4.9327C11.916 2.74657 10.1438 0.974365 7.95768 0.974365ZM7.95768 2.22437C9.45345 2.22437 10.666 3.43693 10.666 4.9327V5.14103H5.24935V4.9327C5.24935 3.43693 6.46191 2.22437 7.95768 2.22437Z" stroke="white"/>
<path d="M2.74655 7.37358C2.7139 7.02995 2.40886 6.77785 2.06523 6.8105C1.7216 6.84315 1.4695 7.14819 1.50215 7.49182C1.58088 8.32038 1.72295 9.34129 1.90558 10.6536L2.1402 12.3395C2.36451 13.9518 2.49172 14.8661 2.76693 15.6152C3.2791 17.0092 4.19273 18.1267 5.36773 18.6226C6.00579 18.8918 6.73562 18.8915 7.82212 18.8911H8.09324C9.17975 18.8915 9.90958 18.8918 10.5476 18.6226C11.7226 18.1267 12.6363 17.0092 13.1484 15.6152C13.4236 14.8661 13.5509 13.9518 13.7752 12.3394L14.0098 10.6536C14.1924 9.3413 14.3345 8.32038 14.4132 7.49182C14.4459 7.14819 14.1938 6.84315 13.8501 6.8105C13.5065 6.77785 13.2015 7.02995 13.1688 7.37358C13.093 8.17188 12.9548 9.16605 12.7696 10.4961L12.551 12.067C12.3089 13.8067 12.1981 14.5773 11.9751 15.1841C11.5452 16.3542 10.8304 17.1465 10.0617 17.4709C9.68649 17.6292 9.23199 17.641 7.95768 17.641C6.68338 17.641 6.22888 17.6292 5.85371 17.4709C5.08501 17.1465 4.37015 16.3542 3.94024 15.1841C3.71731 14.5773 3.60644 13.8067 3.36433 12.067L3.14572 10.4961C2.96061 9.16606 2.8224 8.17189 2.74655 7.37358Z" stroke="white"/>
</svg>
