<svg width="20" height="22" viewBox="0 0 20 22" fill="none" xmlns="http://www.w3.org/2000/svg">
<path d="M2.81107 20.0451L3.25191 19.4383L2.81107 20.0451ZM1.70491 18.9389L2.31168 18.4981L1.70491 18.9389ZM17.7951 18.9389L17.1883 18.4981L17.7951 18.9389ZM16.6889 20.0451L16.2481 19.4383L16.6889 20.0451ZM16.6889 1.95491L16.2481 2.56168L16.6889 1.95491ZM17.7951 3.06107L17.1883 3.50191L17.7951 3.06107ZM2.81107 1.95491L3.25191 2.56168L2.81107 1.95491ZM1.70491 3.06107L2.31168 3.50191L1.70491 3.06107ZM5.75 14.25C5.33579 14.25 5 14.5858 5 15C5 15.4142 5.33579 15.75 5.75 15.75V14.25ZM13.75 15.75C14.1642 15.75 14.5 15.4142 14.5 15C14.5 14.5858 14.1642 14.25 13.75 14.25V15.75ZM5.75 10.25C5.33579 10.25 5 10.5858 5 11C5 11.4142 5.33579 11.75 5.75 11.75V10.25ZM13.75 11.75C14.1642 11.75 14.5 11.4142 14.5 11C14.5 10.5858 14.1642 10.25 13.75 10.25V11.75ZM5.75 6.25C5.33579 6.25 5 6.58579 5 7C5 7.41421 5.33579 7.75 5.75 7.75V6.25ZM8.75 7.75C9.16421 7.75 9.5 7.41421 9.5 7C9.5 6.58579 9.16421 6.25 8.75 6.25V7.75ZM18 10V12H19.5V10H18ZM1.5 12V10H0V12H1.5ZM9.75 20.25C7.85843 20.25 6.49999 20.249 5.44804 20.135C4.41013 20.0225 3.75992 19.8074 3.25191 19.4383L2.37023 20.6518C3.17656 21.2377 4.12094 21.5 5.28648 21.6263C6.43798 21.751 7.89184 21.75 9.75 21.75V20.25ZM0 12C0 13.8582 -0.00102943 15.312 0.123728 16.4635C0.250006 17.6291 0.512324 18.5734 1.09815 19.3798L2.31168 18.4981C1.94259 17.9901 1.72745 17.3399 1.615 16.302C1.50103 15.25 1.5 13.8916 1.5 12H0ZM3.25191 19.4383C2.89111 19.1762 2.57382 18.8589 2.31168 18.4981L1.09815 19.3798C1.45281 19.8679 1.88209 20.2972 2.37023 20.6518L3.25191 19.4383ZM18 12C18 13.8916 17.999 15.25 17.885 16.302C17.7725 17.3399 17.5574 17.9901 17.1883 18.4981L18.4018 19.3798C18.9877 18.5734 19.25 17.6291 19.3763 16.4635C19.501 15.312 19.5 13.8582 19.5 12H18ZM9.75 21.75C11.6082 21.75 13.062 21.751 14.2135 21.6263C15.3791 21.5 16.3234 21.2377 17.1298 20.6518L16.2481 19.4383C15.7401 19.8074 15.0899 20.0225 14.052 20.135C13 20.249 11.6416 20.25 9.75 20.25V21.75ZM17.1883 18.4981C16.9262 18.8589 16.6089 19.1762 16.2481 19.4383L17.1298 20.6518C17.6179 20.2972 18.0472 19.8679 18.4018 19.3798L17.1883 18.4981ZM9.75 1.75C11.6416 1.75 13 1.75103 14.052 1.865C15.0899 1.97745 15.7401 2.19259 16.2481 2.56168L17.1298 1.34815C16.3234 0.762324 15.3791 0.500006 14.2135 0.373728C13.062 0.248971 11.6082 0.25 9.75 0.25V1.75ZM19.5 10C19.5 8.14184 19.501 6.68798 19.3763 5.53648C19.25 4.37094 18.9877 3.42656 18.4018 2.62023L17.1883 3.50191C17.5574 4.00992 17.7725 4.66013 17.885 5.69804C17.999 6.74999 18 8.10843 18 10H19.5ZM16.2481 2.56168C16.6089 2.82382 16.9262 3.14111 17.1883 3.50191L18.4018 2.62023C18.0472 2.13209 17.6179 1.70281 17.1298 1.34815L16.2481 2.56168ZM9.75 0.25C7.89184 0.25 6.43798 0.248971 5.28648 0.373728C4.12094 0.500006 3.17656 0.762324 2.37023 1.34815L3.25191 2.56168C3.75992 2.19259 4.41013 1.97745 5.44804 1.865C6.49999 1.75103 7.85843 1.75 9.75 1.75V0.25ZM1.5 10C1.5 8.10843 1.50103 6.74999 1.615 5.69804C1.72745 4.66013 1.94259 4.00992 2.31168 3.50191L1.09815 2.62023C0.512324 3.42656 0.250006 4.37094 0.123728 5.53648C-0.00102943 6.68798 0 8.14184 0 10H1.5ZM2.37023 1.34815C1.88209 1.70281 1.45281 2.13209 1.09815 2.62023L2.31168 3.50191C2.57382 3.14111 2.89111 2.82382 3.25191 2.56168L2.37023 1.34815ZM5.75 15.75H13.75V14.25H5.75V15.75ZM5.75 11.75H13.75V10.25H5.75V11.75ZM5.75 7.75H8.75V6.25H5.75V7.75Z" fill="white"/>
</svg>
