<svg width="18" height="18" viewBox="0 0 18 18" fill="none" xmlns="http://www.w3.org/2000/svg">
<path d="M2.98514 6.4487L3.10247 7.18947L3.10247 7.18947L2.98514 6.4487ZM6.4487 2.98514L7.18947 3.10247L7.18947 3.10247L6.4487 2.98514ZM14.7824 15.7042L14.3416 15.0975L14.7824 15.7042ZM15.7042 14.7824L15.0975 14.3416L15.7042 14.7824ZM2.29576 14.7824L2.90252 14.3416L2.29576 14.7824ZM3.21756 15.7042L3.6584 15.0975L3.21756 15.7042ZM3.21756 2.29576L2.77672 1.689L3.21756 2.29576ZM2.29576 3.21756L1.689 2.77672L2.29576 3.21756ZM14.7824 2.29576L14.3416 2.90253L14.7824 2.29576ZM15.7042 3.21756L15.0975 3.6584L15.7042 3.21756ZM6.5 1.52411L6.47432 0.774547L6.5 1.52411ZM1.52411 6.5L0.774547 6.47432L1.52411 6.5ZM7.33333 9.08333C6.91912 9.08333 6.58333 9.41912 6.58333 9.83333C6.58333 10.2475 6.91912 10.5833 7.33333 10.5833V9.08333ZM12.3333 10.5833C12.7475 10.5833 13.0833 10.2475 13.0833 9.83333C13.0833 9.41912 12.7475 9.08333 12.3333 9.08333V10.5833ZM9.08333 12.3333C9.08333 12.7475 9.41912 13.0833 9.83333 13.0833C10.2475 13.0833 10.5833 12.7475 10.5833 12.3333H9.08333ZM10.5833 7.33333C10.5833 6.91912 10.2475 6.58333 9.83333 6.58333C9.41912 6.58333 9.08333 6.91912 9.08333 7.33333H10.5833ZM3.10247 7.18947C5.20627 6.85626 6.85626 5.20627 7.18947 3.10247L5.70793 2.86782C5.47638 4.32978 4.32978 5.47638 2.86782 5.70794L3.10247 7.18947ZM9 17.25C10.5457 17.25 11.7652 17.251 12.7331 17.1462C13.715 17.0398 14.5265 16.8173 15.2233 16.311L14.3416 15.0975C13.9431 15.387 13.4258 15.5623 12.5715 15.6549C11.7032 15.749 10.5791 15.75 9 15.75V17.25ZM15.75 9C15.75 10.5791 15.749 11.7032 15.6549 12.5715C15.5623 13.4258 15.387 13.9431 15.0975 14.3416L16.311 15.2233C16.8173 14.5265 17.0398 13.715 17.1462 12.7331C17.251 11.7652 17.25 10.5457 17.25 9H15.75ZM15.2233 16.311C15.6407 16.0077 16.0077 15.6407 16.311 15.2233L15.0975 14.3416C14.8867 14.6317 14.6317 14.8867 14.3416 15.0975L15.2233 16.311ZM0.75 9C0.75 10.5457 0.74897 11.7652 0.853833 12.7331C0.960217 13.715 1.18275 14.5265 1.689 15.2233L2.90252 14.3416C2.61301 13.9431 2.43766 13.4258 2.34511 12.5715C2.25103 11.7032 2.25 10.5791 2.25 9H0.75ZM9 15.75C7.42091 15.75 6.29683 15.749 5.4285 15.6549C4.57421 15.5623 4.05688 15.387 3.6584 15.0975L2.77672 16.311C3.47352 16.8173 4.28502 17.0398 5.26693 17.1462C6.23481 17.251 7.45432 17.25 9 17.25V15.75ZM1.689 15.2233C1.99226 15.6407 2.35932 16.0077 2.77672 16.311L3.6584 15.0975C3.36834 14.8867 3.11326 14.6317 2.90252 14.3416L1.689 15.2233ZM2.77672 1.689C2.35932 1.99226 1.99226 2.35932 1.689 2.77672L2.90252 3.6584C3.11326 3.36834 3.36834 3.11326 3.6584 2.90253L2.77672 1.689ZM9 2.25C10.5791 2.25 11.7032 2.25103 12.5715 2.34511C13.4258 2.43766 13.9431 2.61301 14.3416 2.90253L15.2233 1.689C14.5265 1.18275 13.715 0.960218 12.7331 0.853834C11.7652 0.748971 10.5457 0.75 9 0.75V2.25ZM17.25 9C17.25 7.45432 17.251 6.23481 17.1462 5.26693C17.0398 4.28502 16.8173 3.47352 16.311 2.77672L15.0975 3.6584C15.387 4.05688 15.5623 4.57421 15.6549 5.4285C15.749 6.29683 15.75 7.42091 15.75 9H17.25ZM14.3416 2.90253C14.6317 3.11326 14.8867 3.36834 15.0975 3.6584L16.311 2.77672C16.0077 2.35932 15.6407 1.99226 15.2233 1.689L14.3416 2.90253ZM9 0.75C8.03005 0.75 7.19352 0.749906 6.47432 0.774547L6.52568 2.27367C7.21372 2.25009 8.02174 2.25 9 2.25V0.75ZM6.47432 0.774547C4.91157 0.828089 3.72962 0.996682 2.77672 1.689L3.6584 2.90253C4.21318 2.49945 4.98145 2.32657 6.52568 2.27367L6.47432 0.774547ZM5.75 1.5241C5.74999 2.30973 5.74718 2.62005 5.70793 2.86782L7.18947 3.10247C7.25175 2.70922 7.24999 2.25476 7.25 1.52411L5.75 1.5241ZM2.25 9C2.25 8.02174 2.25009 7.21372 2.27367 6.52568L0.774547 6.47432C0.749906 7.19352 0.75 8.03004 0.75 9H2.25ZM2.27367 6.52568C2.32657 4.98145 2.49945 4.21318 2.90252 3.6584L1.689 2.77672C0.996682 3.72962 0.828089 4.91157 0.774547 6.47432L2.27367 6.52568ZM1.52411 7.25C2.25476 7.24999 2.70922 7.25175 3.10247 7.18947L2.86782 5.70794C2.62005 5.74718 2.30973 5.74999 1.5241 5.75L1.52411 7.25ZM7.33333 10.5833H12.3333V9.08333H7.33333V10.5833ZM10.5833 12.3333V7.33333H9.08333V12.3333H10.5833Z" fill="#0EFFE2"/>
</svg>
