<svg width="24" height="23" viewBox="0 0 24 23" fill="none" xmlns="http://www.w3.org/2000/svg">
<g filter="url(#filter0_d_1247_523)">
<path d="M11.75 8.06006C11.75 7.64585 11.4142 7.31006 11 7.31006C10.5858 7.31006 10.25 7.64585 10.25 8.06006V10.3101H8C7.58579 10.3101 7.25 10.6458 7.25 11.0601C7.25 11.4743 7.58579 11.8101 8 11.8101H10.25V14.0601C10.25 14.4743 10.5858 14.8101 11 14.8101C11.4142 14.8101 11.75 14.4743 11.75 14.0601V11.8101H14C14.4142 11.8101 14.75 11.4743 14.75 11.0601C14.75 10.6458 14.4142 10.3101 14 10.3101H11.75V8.06006Z" fill="white"/>
<path fill-rule="evenodd" clip-rule="evenodd" d="M15.0257 0.339427C14.1685 0.310059 13.1711 0.310059 12.0111 0.310059H11.9548C10.1182 0.310051 8.67861 0.310044 7.53648 0.433787C6.37094 0.560065 5.42656 0.822383 4.62024 1.40821C4.13209 1.76287 3.70281 2.19215 3.34815 2.68029C2.76232 3.48662 2.50001 4.431 2.37373 5.59653C2.24999 6.73867 2.24999 8.17827 2.25 10.0148V10.1053C2.24999 11.9418 2.24999 13.3814 2.37373 14.5236C2.50001 15.6891 2.76232 16.6335 3.34815 17.4398C3.70281 17.928 4.13209 18.3572 4.62024 18.7119C5.42656 19.2977 6.37094 19.5601 7.53648 19.6863C8.67859 19.8101 10.1182 19.8101 11.9547 19.8101H12.0453C13.8818 19.8101 15.3214 19.8101 16.4635 19.6863C17.6291 19.5601 18.5734 19.2977 19.3798 18.7119C19.8679 18.3573 20.2972 17.928 20.6518 17.4398C21.2377 16.6335 21.5 15.6891 21.6263 14.5236C21.75 13.3815 21.75 11.9419 21.75 10.1054V10.049C21.75 8.88897 21.75 7.89159 21.7206 7.03438C21.6564 5.16093 21.4537 3.78395 20.6518 2.68029C20.2972 2.19215 19.8679 1.76287 19.3798 1.40821C18.2761 0.606355 16.8991 0.403614 15.0257 0.339427ZM5.50191 2.62174C6.00992 2.25265 6.66013 2.03751 7.69804 1.92506C8.74999 1.81109 10.1084 1.81006 12 1.81006C12.8483 1.81006 13.5918 1.81011 14.2518 1.82087C14.2562 2.29553 14.271 2.64495 14.3208 2.95956C14.7105 5.41994 16.6401 7.34958 19.1005 7.73927C19.4151 7.7891 19.7645 7.80387 20.2392 7.80823C20.25 8.46828 20.25 9.21171 20.25 10.0601C20.25 11.9516 20.249 13.3101 20.135 14.362C20.0225 15.3999 19.8074 16.0501 19.4383 16.5581C19.1762 16.9189 18.8589 17.2362 18.4981 17.4984C17.9901 17.8675 17.3399 18.0826 16.302 18.1951C15.25 18.309 13.8916 18.3101 12 18.3101C10.1084 18.3101 8.74999 18.309 7.69804 18.1951C6.66013 18.0826 6.00992 17.8675 5.50191 17.4984C5.14111 17.2362 4.82382 16.9189 4.56168 16.5581C4.19259 16.0501 3.97745 15.3999 3.865 14.362C3.75103 13.3101 3.75 11.9516 3.75 10.0601C3.75 8.16849 3.75103 6.81005 3.865 5.7581C3.97745 4.72019 4.19259 4.06998 4.56168 3.56197C4.82382 3.20117 5.14111 2.88388 5.50191 2.62174ZM15.8023 2.72491C15.7699 2.51987 15.7575 2.28244 15.7528 1.8775C17.1131 1.97127 17.8986 2.18621 18.4981 2.62174C18.8589 2.88388 19.1762 3.20117 19.4383 3.56197C19.8738 4.16142 20.0888 4.94693 20.1826 6.30727C19.7776 6.3026 19.5402 6.29021 19.3352 6.25773C17.5166 5.96971 16.0904 4.54345 15.8023 2.72491Z" fill="white"/>
<path d="M11.75 8.06006C11.75 7.64585 11.4142 7.31006 11 7.31006C10.5858 7.31006 10.25 7.64585 10.25 8.06006V10.3101H8C7.58579 10.3101 7.25 10.6458 7.25 11.0601C7.25 11.4743 7.58579 11.8101 8 11.8101H10.25V14.0601C10.25 14.4743 10.5858 14.8101 11 14.8101C11.4142 14.8101 11.75 14.4743 11.75 14.0601V11.8101H14C14.4142 11.8101 14.75 11.4743 14.75 11.0601C14.75 10.6458 14.4142 10.3101 14 10.3101H11.75V8.06006Z" stroke="white"/>
<path fill-rule="evenodd" clip-rule="evenodd" d="M15.0257 0.339427C14.1685 0.310059 13.1711 0.310059 12.0111 0.310059H11.9548C10.1182 0.310051 8.67861 0.310044 7.53648 0.433787C6.37094 0.560065 5.42656 0.822383 4.62024 1.40821C4.13209 1.76287 3.70281 2.19215 3.34815 2.68029C2.76232 3.48662 2.50001 4.431 2.37373 5.59653C2.24999 6.73867 2.24999 8.17827 2.25 10.0148V10.1053C2.24999 11.9418 2.24999 13.3814 2.37373 14.5236C2.50001 15.6891 2.76232 16.6335 3.34815 17.4398C3.70281 17.928 4.13209 18.3572 4.62024 18.7119C5.42656 19.2977 6.37094 19.5601 7.53648 19.6863C8.67859 19.8101 10.1182 19.8101 11.9547 19.8101H12.0453C13.8818 19.8101 15.3214 19.8101 16.4635 19.6863C17.6291 19.5601 18.5734 19.2977 19.3798 18.7119C19.8679 18.3573 20.2972 17.928 20.6518 17.4398C21.2377 16.6335 21.5 15.6891 21.6263 14.5236C21.75 13.3815 21.75 11.9419 21.75 10.1054V10.049C21.75 8.88897 21.75 7.89159 21.7206 7.03438C21.6564 5.16093 21.4537 3.78395 20.6518 2.68029C20.2972 2.19215 19.8679 1.76287 19.3798 1.40821C18.2761 0.606355 16.8991 0.403614 15.0257 0.339427ZM5.50191 2.62174C6.00992 2.25265 6.66013 2.03751 7.69804 1.92506C8.74999 1.81109 10.1084 1.81006 12 1.81006C12.8483 1.81006 13.5918 1.81011 14.2518 1.82087C14.2562 2.29553 14.271 2.64495 14.3208 2.95956C14.7105 5.41994 16.6401 7.34958 19.1005 7.73927C19.4151 7.7891 19.7645 7.80387 20.2392 7.80823C20.25 8.46828 20.25 9.21171 20.25 10.0601C20.25 11.9516 20.249 13.3101 20.135 14.362C20.0225 15.3999 19.8074 16.0501 19.4383 16.5581C19.1762 16.9189 18.8589 17.2362 18.4981 17.4984C17.9901 17.8675 17.3399 18.0826 16.302 18.1951C15.25 18.309 13.8916 18.3101 12 18.3101C10.1084 18.3101 8.74999 18.309 7.69804 18.1951C6.66013 18.0826 6.00992 17.8675 5.50191 17.4984C5.14111 17.2362 4.82382 16.9189 4.56168 16.5581C4.19259 16.0501 3.97745 15.3999 3.865 14.362C3.75103 13.3101 3.75 11.9516 3.75 10.0601C3.75 8.16849 3.75103 6.81005 3.865 5.7581C3.97745 4.72019 4.19259 4.06998 4.56168 3.56197C4.82382 3.20117 5.14111 2.88388 5.50191 2.62174ZM15.8023 2.72491C15.7699 2.51987 15.7575 2.28244 15.7528 1.8775C17.1131 1.97127 17.8986 2.18621 18.4981 2.62174C18.8589 2.88388 19.1762 3.20117 19.4383 3.56197C19.8738 4.16142 20.0888 4.94693 20.1826 6.30727C19.7776 6.3026 19.5402 6.29021 19.3352 6.25773C17.5166 5.96971 16.0904 4.54345 15.8023 2.72491Z" stroke="white"/>
</g>
<defs>
<filter id="filter0_d_1247_523" x="-1.75" y="0.310059" width="27.5" height="27.5" filterUnits="userSpaceOnUse" color-interpolation-filters="sRGB">
<feFlood flood-opacity="0" result="BackgroundImageFix"/>
<feColorMatrix in="SourceAlpha" type="matrix" values="0 0 0 0 0 0 0 0 0 0 0 0 0 0 0 0 0 0 127 0" result="hardAlpha"/>
<feOffset dy="4"/>
<feGaussianBlur stdDeviation="2"/>
<feComposite in2="hardAlpha" operator="out"/>
<feColorMatrix type="matrix" values="0 0 0 0 0 0 0 0 0 0 0 0 0 0 0 0 0 0 0.25 0"/>
<feBlend mode="normal" in2="BackgroundImageFix" result="effect1_dropShadow_1247_523"/>
<feBlend mode="normal" in="SourceGraphic" in2="effect1_dropShadow_1247_523" result="shape"/>
</filter>
</defs>
</svg>
