<svg width="15" height="19" viewBox="0 0 15 19" fill="none" xmlns="http://www.w3.org/2000/svg">
<path d="M6.28704 16.3714L6.01411 15.6728L6.28704 16.3714ZM2.23064 17.1504L1.85564 17.7999L1.85564 17.7999L2.23064 17.1504ZM0.877024 13.2479L0.135574 13.3609L0.877024 13.2479ZM1.36732 10.6457L2.01684 11.0207L1.36732 10.6457ZM0.783172 11.8829L0.04614 11.7441H0.04614L0.783172 11.8829ZM8.29552 14.6457L8.94504 15.0207L8.29552 14.6457ZM7.5161 15.7702L8.00487 16.3391H8.00488L7.5161 15.7702ZM5.16576 4.06659L4.51624 3.69159L5.16576 4.06659ZM11.4444 7.69159L7.64601 14.2707L8.94504 15.0207L12.7435 8.44159L11.4444 7.69159ZM2.01684 11.0207L5.81528 4.44159L4.51624 3.69159L0.717802 10.2707L2.01684 11.0207ZM6.01411 15.6728C4.91764 16.1012 4.17088 16.391 3.5944 16.5257C3.03753 16.6558 2.78484 16.6043 2.60564 16.5008L1.85564 17.7999C2.50891 18.177 3.20978 18.1559 3.93567 17.9864C4.64195 17.8213 5.50715 17.4813 6.55997 17.07L6.01411 15.6728ZM0.135574 13.3609C0.305763 14.4783 0.443908 15.3976 0.654145 16.0918C0.870217 16.8052 1.20237 17.4227 1.85564 17.7999L2.60564 16.5008C2.42645 16.3974 2.25551 16.2043 2.08975 15.657C1.91815 15.0904 1.79572 14.2988 1.61847 13.135L0.135574 13.3609ZM0.717802 10.2707C0.395981 10.8281 0.138316 11.2548 0.04614 11.7441L1.5202 12.0218C1.55416 11.8416 1.64388 11.6667 2.01684 11.0207L0.717802 10.2707ZM1.61847 13.135C1.50616 12.3976 1.48625 12.202 1.5202 12.0218L0.04614 11.7441C-0.046036 12.2333 0.0386628 12.7246 0.135574 13.3609L1.61847 13.135ZM7.64601 14.2707C7.27305 14.9167 7.16641 15.0818 7.02732 15.2013L8.00488 16.3391C8.38247 16.0146 8.62322 15.5781 8.94504 15.0207L7.64601 14.2707ZM6.55997 17.07C7.15948 16.8358 7.62728 16.6635 8.00487 16.3391L7.02732 15.2013C6.88823 15.3209 6.70889 15.4014 6.01411 15.6728L6.55997 17.07ZM10.2549 3.25201C11.0897 3.73401 11.6497 4.05917 12.0356 4.35693C12.4042 4.64139 12.5216 4.833 12.5693 5.01102L14.0182 4.62279C13.8515 4.0006 13.4535 3.55641 12.952 3.16941C12.4677 2.79572 11.803 2.41377 11.0049 1.95297L10.2549 3.25201ZM12.7435 8.44159C13.2043 7.64346 13.589 6.98031 13.8215 6.41456C14.0623 5.82867 14.1849 5.24497 14.0182 4.62279L12.5693 5.01102C12.617 5.18903 12.6111 5.41368 12.4341 5.84434C12.2488 6.29513 11.9264 6.85673 11.4444 7.69159L12.7435 8.44159ZM11.0049 1.95297C10.2067 1.49217 9.54358 1.10746 8.97783 0.874936C8.39194 0.634135 7.80824 0.51153 7.18606 0.678244L7.57429 2.12713C7.7523 2.07943 7.97695 2.08532 8.40761 2.26233C8.8584 2.4476 9.42 2.77 10.2549 3.25201L11.0049 1.95297ZM5.81528 4.44159C6.29728 3.60673 6.62244 3.04673 6.9202 2.66087C7.20466 2.29226 7.39627 2.17483 7.57429 2.12713L7.18606 0.678244C6.56387 0.844957 6.11968 1.24299 5.73269 1.74447C5.35899 2.22872 4.97704 2.89346 4.51624 3.69159L5.81528 4.44159ZM12.469 7.41707L5.54076 3.41707L4.79076 4.71611L11.719 8.71611L12.469 7.41707Z" fill="#00C28C"/>
</svg>
