<svg width="19" height="16" viewBox="0 0 19 16" fill="none" xmlns="http://www.w3.org/2000/svg">
<path fill-rule="evenodd" clip-rule="evenodd" d="M9.49984 4.87516C7.77395 4.87516 6.37484 6.27427 6.37484 8.00016C6.37484 9.72605 7.77395 11.1252 9.49984 11.1252C11.2257 11.1252 12.6248 9.72605 12.6248 8.00016C12.6248 6.27427 11.2257 4.87516 9.49984 4.87516ZM7.62484 8.00016C7.62484 6.96463 8.46431 6.12516 9.49984 6.12516C10.5354 6.12516 11.3748 6.96463 11.3748 8.00016C11.3748 9.0357 10.5354 9.87516 9.49984 9.87516C8.46431 9.87516 7.62484 9.0357 7.62484 8.00016Z" fill="white"/>
<path fill-rule="evenodd" clip-rule="evenodd" d="M9.49984 0.708496C7.71571 0.708496 6.10255 1.59099 4.79295 2.66326C3.4762 3.74138 2.39952 5.0657 1.67602 6.07351L1.61635 6.15649C1.1808 6.76169 0.822266 7.25988 0.822266 8.00016C0.822266 8.74045 1.1808 9.23863 1.61635 9.84384L1.67602 9.92682C2.39952 10.9346 3.4762 12.2589 4.79295 13.3371C6.10255 14.4093 7.71571 15.2918 9.49984 15.2918C11.284 15.2918 12.8971 14.4093 14.2067 13.3371C15.5235 12.2589 16.6002 10.9346 17.3237 9.92682L17.3833 9.84384C17.8189 9.23864 18.1774 8.74045 18.1774 8.00016C18.1774 7.25988 17.8189 6.76169 17.3833 6.15649L17.3237 6.07351C16.6002 5.0657 15.5235 3.74138 14.2067 2.66326C12.8971 1.59099 11.284 0.708496 9.49984 0.708496ZM2.69145 6.80248C3.3825 5.83987 4.38607 4.61195 5.58484 3.63042C6.79076 2.64305 8.12837 1.9585 9.49984 1.9585C10.8713 1.9585 12.2089 2.64305 13.4148 3.63042C14.6136 4.61194 15.6172 5.83987 16.3082 6.80248C16.8282 7.52678 16.9274 7.70139 16.9274 8.00016C16.9274 8.29893 16.8282 8.47355 16.3082 9.19784C15.6172 10.1605 14.6136 11.3884 13.4148 12.3699C12.2089 13.3573 10.8713 14.0418 9.49984 14.0418C8.12837 14.0418 6.79076 13.3573 5.58484 12.3699C4.38608 11.3884 3.3825 10.1605 2.69145 9.19784C2.17148 8.47355 2.07227 8.29893 2.07227 8.00016C2.07227 7.70139 2.17148 7.52678 2.69145 6.80248Z" fill="white"/>
<path fill-rule="evenodd" clip-rule="evenodd" d="M9.49984 4.87516C7.77395 4.87516 6.37484 6.27427 6.37484 8.00016C6.37484 9.72605 7.77395 11.1252 9.49984 11.1252C11.2257 11.1252 12.6248 9.72605 12.6248 8.00016C12.6248 6.27427 11.2257 4.87516 9.49984 4.87516ZM7.62484 8.00016C7.62484 6.96463 8.46431 6.12516 9.49984 6.12516C10.5354 6.12516 11.3748 6.96463 11.3748 8.00016C11.3748 9.0357 10.5354 9.87516 9.49984 9.87516C8.46431 9.87516 7.62484 9.0357 7.62484 8.00016Z" stroke="white"/>
<path fill-rule="evenodd" clip-rule="evenodd" d="M9.49984 0.708496C7.71571 0.708496 6.10255 1.59099 4.79295 2.66326C3.4762 3.74138 2.39952 5.0657 1.67602 6.07351L1.61635 6.15649C1.1808 6.76169 0.822266 7.25988 0.822266 8.00016C0.822266 8.74045 1.1808 9.23863 1.61635 9.84384L1.67602 9.92682C2.39952 10.9346 3.4762 12.2589 4.79295 13.3371C6.10255 14.4093 7.71571 15.2918 9.49984 15.2918C11.284 15.2918 12.8971 14.4093 14.2067 13.3371C15.5235 12.2589 16.6002 10.9346 17.3237 9.92682L17.3833 9.84384C17.8189 9.23864 18.1774 8.74045 18.1774 8.00016C18.1774 7.25988 17.8189 6.76169 17.3833 6.15649L17.3237 6.07351C16.6002 5.0657 15.5235 3.74138 14.2067 2.66326C12.8971 1.59099 11.284 0.708496 9.49984 0.708496ZM2.69145 6.80248C3.3825 5.83987 4.38607 4.61195 5.58484 3.63042C6.79076 2.64305 8.12837 1.9585 9.49984 1.9585C10.8713 1.9585 12.2089 2.64305 13.4148 3.63042C14.6136 4.61194 15.6172 5.83987 16.3082 6.80248C16.8282 7.52678 16.9274 7.70139 16.9274 8.00016C16.9274 8.29893 16.8282 8.47355 16.3082 9.19784C15.6172 10.1605 14.6136 11.3884 13.4148 12.3699C12.2089 13.3573 10.8713 14.0418 9.49984 14.0418C8.12837 14.0418 6.79076 13.3573 5.58484 12.3699C4.38608 11.3884 3.3825 10.1605 2.69145 9.19784C2.17148 8.47355 2.07227 8.29893 2.07227 8.00016C2.07227 7.70139 2.17148 7.52678 2.69145 6.80248Z" stroke="white"/>
</svg>
