<svg width="15" height="15" viewBox="0 0 15 15" fill="none" xmlns="http://www.w3.org/2000/svg">
<path d="M14 5.5C14.001 4.57771 13.8052 3.66583 13.4259 2.82518C13.0465 1.98453 12.4922 1.23445 11.8 0.625L11.138 1.375C11.6804 1.85393 12.1229 2.43518 12.4403 3.08544C12.7577 3.73569 12.9436 4.44219 12.9875 5.16443C13.0313 5.88667 12.9322 6.61047 12.6959 7.29435C12.4595 7.97823 12.0905 8.60876 11.6101 9.1498C11.1296 9.69083 10.5471 10.1318 9.89599 10.4473C9.24484 10.7628 8.53783 10.9468 7.81546 10.9886C7.0931 11.0304 6.36959 10.9293 5.68637 10.691C5.00316 10.4527 4.37368 10.082 3.83399 9.6L3.16699 10.345C4.22963 11.2974 5.57708 11.8722 6.99999 11.98V14H3.99999V15H11V14H7.99999V11.981C9.63254 11.855 11.1574 11.1176 12.2698 9.91604C13.3821 8.7145 14.0001 7.1374 14 5.5Z" fill="#00C28C"/>
<path d="M7.5 2C7.04037 2 6.58525 2.09053 6.16061 2.26642C5.73597 2.44231 5.35013 2.70012 5.02513 3.02513C4.70012 3.35013 4.44231 3.73597 4.26642 4.16061C4.09053 4.58525 4 5.04037 4 5.5C4 5.95963 4.09053 6.41475 4.26642 6.83939C4.44231 7.26403 4.70012 7.64987 5.02513 7.97487C5.35013 8.29988 5.73597 8.55769 6.16061 8.73358C6.58525 8.90947 7.04037 9 7.5 9C8.42826 9 9.3185 8.63125 9.97487 7.97487C10.6313 7.3185 11 6.42826 11 5.5C11 4.57174 10.6313 3.6815 9.97487 3.02513C9.3185 2.36875 8.42826 2 7.5 2Z" fill="#00C28C"/>
</svg>
