<svg width="24" height="20" viewBox="0 0 24 20" fill="none" xmlns="http://www.w3.org/2000/svg">
<path fill-rule="evenodd" clip-rule="evenodd" d="M10.397 1.73878C11.457 1.54606 12.543 1.54606 13.603 1.73878C18.3658 2.60475 21.5798 7.09697 20.8617 11.8843L20.8535 11.9389C19.4028 12.015 18.25 13.2154 18.25 14.685V16.685C18.25 18.2038 19.4812 19.435 21 19.435C22.5188 19.435 23.75 18.2038 23.75 16.685V14.685C23.75 13.6441 23.1721 12.7394 22.3203 12.2724L22.3451 12.1069C23.1834 6.5181 19.4314 1.2739 13.8713 0.262973C12.6339 0.0379935 11.3661 0.0379934 10.1287 0.262973C4.56859 1.2739 0.816569 6.5181 1.65488 12.1069L1.67971 12.2724C0.827854 12.7394 0.25 13.6441 0.25 14.685V16.685C0.25 18.2038 1.48122 19.435 3 19.435C4.51878 19.435 5.75 18.2038 5.75 16.685V14.685C5.75 13.2154 4.59716 12.015 3.14647 11.9389L3.13829 11.8843C2.42018 7.09697 5.63419 2.60475 10.397 1.73878ZM2.69261 13.4729C2.79017 13.4483 2.893 13.435 3 13.435C3.69036 13.435 4.25 13.9947 4.25 14.685V16.685C4.25 17.3754 3.69036 17.935 3 17.935C2.30964 17.935 1.75 17.3754 1.75 16.685V14.685C1.75 14.1016 2.15048 13.6097 2.69261 13.4729ZM19.75 14.685C19.75 13.9947 20.3096 13.435 21 13.435C21.107 13.435 21.2098 13.4483 21.3074 13.4729C21.8495 13.6097 22.25 14.1016 22.25 14.685V16.685C22.25 17.3754 21.6904 17.935 21 17.935C20.3096 17.935 19.75 17.3754 19.75 16.685V14.685Z" fill="white"/>
</svg>
