<svg width="24" height="25" viewBox="0 0 24 25" fill="none" xmlns="http://www.w3.org/2000/svg">
<path fill-rule="evenodd" clip-rule="evenodd" d="M10.397 4.73878C11.457 4.54606 12.543 4.54606 13.603 4.73878C18.3658 5.60475 21.5798 10.097 20.8617 14.8843L20.8535 14.9389C19.4028 15.015 18.25 16.2154 18.25 17.685V19.685C18.25 21.2038 19.4812 22.435 21 22.435C22.5188 22.435 23.75 21.2038 23.75 19.685V17.685C23.75 16.6441 23.1721 15.7394 22.3203 15.2724L22.3451 15.1069C23.1834 9.5181 19.4314 4.2739 13.8713 3.26297C12.6339 3.03799 11.3661 3.03799 10.1287 3.26297C4.56859 4.2739 0.816569 9.5181 1.65488 15.1069L1.67971 15.2724C0.827854 15.7394 0.25 16.6441 0.25 17.685V19.685C0.25 21.2038 1.48122 22.435 3 22.435C4.51878 22.435 5.75 21.2038 5.75 19.685V17.685C5.75 16.2154 4.59716 15.015 3.14647 14.9389L3.13829 14.8843C2.42018 10.097 5.63419 5.60475 10.397 4.73878ZM2.69261 16.4729C2.79017 16.4483 2.893 16.435 3 16.435C3.69036 16.435 4.25 16.9947 4.25 17.685V19.685C4.25 20.3754 3.69036 20.935 3 20.935C2.30964 20.935 1.75 20.3754 1.75 19.685V17.685C1.75 17.1016 2.15048 16.6097 2.69261 16.4729ZM19.75 17.685C19.75 16.9947 20.3096 16.435 21 16.435C21.107 16.435 21.2098 16.4483 21.3074 16.4729C21.8495 16.6097 22.25 17.1016 22.25 17.685V19.685C22.25 20.3754 21.6904 20.935 21 20.935C20.3096 20.935 19.75 20.3754 19.75 19.685V17.685Z" fill="white"/>
</svg>
