<svg width="20" height="22" viewBox="0 0 20 22" fill="none" xmlns="http://www.w3.org/2000/svg">
<path d="M6 6.09424C5.58579 6.09424 5.25 6.43003 5.25 6.84424C5.25 7.25845 5.58579 7.59424 6 7.59424H14C14.4142 7.59424 14.75 7.25845 14.75 6.84424C14.75 6.43003 14.4142 6.09424 14 6.09424H6Z" fill="white"/>
<path d="M8 10.0942C7.58579 10.0942 7.25 10.43 7.25 10.8442C7.25 11.2585 7.58579 11.5942 8 11.5942H12C12.4142 11.5942 12.75 11.2585 12.75 10.8442C12.75 10.43 12.4142 10.0942 12 10.0942H8Z" fill="white"/>
<path d="M6 14.0942C5.58579 14.0942 5.25 14.43 5.25 14.8442C5.25 15.2585 5.58579 15.5942 6 15.5942H14C14.4142 15.5942 14.75 15.2585 14.75 14.8442C14.75 14.43 14.4142 14.0942 14 14.0942H6Z" fill="white"/>
<path fill-rule="evenodd" clip-rule="evenodd" d="M14.4635 0.217967C13.3214 0.0942238 11.8818 0.0942302 10.0452 0.0942384H9.95475C8.11821 0.0942302 6.67861 0.0942238 5.53648 0.217967C4.37094 0.344245 3.42656 0.606562 2.62024 1.19239C2.13209 1.54705 1.70281 1.97633 1.34815 2.46447C0.762324 3.2708 0.500006 4.21518 0.373728 5.38071C0.249985 6.52285 0.249992 7.96245 0.25 9.79899V11.8895C0.249992 13.726 0.249985 15.1656 0.373728 16.3078C0.500006 17.4733 0.762324 18.4177 1.34815 19.224C1.70281 19.7121 2.13209 20.1414 2.62024 20.4961C3.42656 21.0819 4.37094 21.3442 5.53648 21.4705C6.67859 21.5943 8.11817 21.5942 9.95465 21.5942H10.0453C11.8818 21.5942 13.3214 21.5943 14.4635 21.4705C15.6291 21.3442 16.5734 21.0819 17.3798 20.4961C17.8679 20.1414 18.2972 19.7121 18.6518 19.224C19.2377 18.4177 19.5 17.4733 19.6263 16.3078C19.75 15.1656 19.75 13.7261 19.75 11.8896V9.79897C19.75 7.96248 19.75 6.52283 19.6263 5.38071C19.5 4.21518 19.2377 3.2708 18.6518 2.46447C18.2972 1.97633 17.8679 1.54705 17.3798 1.19239C16.5734 0.606562 15.6291 0.344245 14.4635 0.217967ZM3.50191 2.40592C4.00992 2.03683 4.66013 1.82169 5.69804 1.70924C6.74999 1.59527 8.10843 1.59424 10 1.59424C11.8916 1.59424 13.25 1.59527 14.302 1.70924C15.3399 1.82169 15.9901 2.03683 16.4981 2.40592C16.8589 2.66806 17.1762 2.98535 17.4383 3.34615C17.8074 3.85416 18.0225 4.50437 18.135 5.54228C18.249 6.59423 18.25 7.95267 18.25 9.84424V11.8442C18.25 13.7358 18.249 15.0942 18.135 16.1462C18.0225 17.1841 17.8074 17.8343 17.4383 18.3423C17.1762 18.7031 16.8589 19.0204 16.4981 19.2826C15.9901 19.6516 15.3399 19.8668 14.302 19.9792C13.25 20.0932 11.8916 20.0942 10 20.0942C8.10843 20.0942 6.74999 20.0932 5.69804 19.9792C4.66013 19.8668 4.00992 19.6516 3.50191 19.2826C3.14111 19.0204 2.82382 18.7031 2.56168 18.3423C2.19259 17.8343 1.97745 17.1841 1.865 16.1462C1.75103 15.0942 1.75 13.7358 1.75 11.8442V9.84424C1.75 7.95267 1.75103 6.59423 1.865 5.54228C1.97745 4.50437 2.19259 3.85416 2.56168 3.34615C2.82382 2.98535 3.14111 2.66805 3.50191 2.40592Z" fill="white"/>
<path d="M6 6.09424C5.58579 6.09424 5.25 6.43003 5.25 6.84424C5.25 7.25845 5.58579 7.59424 6 7.59424H14C14.4142 7.59424 14.75 7.25845 14.75 6.84424C14.75 6.43003 14.4142 6.09424 14 6.09424H6Z" stroke="white"/>
<path d="M8 10.0942C7.58579 10.0942 7.25 10.43 7.25 10.8442C7.25 11.2585 7.58579 11.5942 8 11.5942H12C12.4142 11.5942 12.75 11.2585 12.75 10.8442C12.75 10.43 12.4142 10.0942 12 10.0942H8Z" stroke="white"/>
<path d="M6 14.0942C5.58579 14.0942 5.25 14.43 5.25 14.8442C5.25 15.2585 5.58579 15.5942 6 15.5942H14C14.4142 15.5942 14.75 15.2585 14.75 14.8442C14.75 14.43 14.4142 14.0942 14 14.0942H6Z" stroke="white"/>
<path fill-rule="evenodd" clip-rule="evenodd" d="M14.4635 0.217967C13.3214 0.0942238 11.8818 0.0942302 10.0452 0.0942384H9.95475C8.11821 0.0942302 6.67861 0.0942238 5.53648 0.217967C4.37094 0.344245 3.42656 0.606562 2.62024 1.19239C2.13209 1.54705 1.70281 1.97633 1.34815 2.46447C0.762324 3.2708 0.500006 4.21518 0.373728 5.38071C0.249985 6.52285 0.249992 7.96245 0.25 9.79899V11.8895C0.249992 13.726 0.249985 15.1656 0.373728 16.3078C0.500006 17.4733 0.762324 18.4177 1.34815 19.224C1.70281 19.7121 2.13209 20.1414 2.62024 20.4961C3.42656 21.0819 4.37094 21.3442 5.53648 21.4705C6.67859 21.5943 8.11817 21.5942 9.95465 21.5942H10.0453C11.8818 21.5942 13.3214 21.5943 14.4635 21.4705C15.6291 21.3442 16.5734 21.0819 17.3798 20.4961C17.8679 20.1414 18.2972 19.7121 18.6518 19.224C19.2377 18.4177 19.5 17.4733 19.6263 16.3078C19.75 15.1656 19.75 13.7261 19.75 11.8896V9.79897C19.75 7.96248 19.75 6.52283 19.6263 5.38071C19.5 4.21518 19.2377 3.2708 18.6518 2.46447C18.2972 1.97633 17.8679 1.54705 17.3798 1.19239C16.5734 0.606562 15.6291 0.344245 14.4635 0.217967ZM3.50191 2.40592C4.00992 2.03683 4.66013 1.82169 5.69804 1.70924C6.74999 1.59527 8.10843 1.59424 10 1.59424C11.8916 1.59424 13.25 1.59527 14.302 1.70924C15.3399 1.82169 15.9901 2.03683 16.4981 2.40592C16.8589 2.66806 17.1762 2.98535 17.4383 3.34615C17.8074 3.85416 18.0225 4.50437 18.135 5.54228C18.249 6.59423 18.25 7.95267 18.25 9.84424V11.8442C18.25 13.7358 18.249 15.0942 18.135 16.1462C18.0225 17.1841 17.8074 17.8343 17.4383 18.3423C17.1762 18.7031 16.8589 19.0204 16.4981 19.2826C15.9901 19.6516 15.3399 19.8668 14.302 19.9792C13.25 20.0932 11.8916 20.0942 10 20.0942C8.10843 20.0942 6.74999 20.0932 5.69804 19.9792C4.66013 19.8668 4.00992 19.6516 3.50191 19.2826C3.14111 19.0204 2.82382 18.7031 2.56168 18.3423C2.19259 17.8343 1.97745 17.1841 1.865 16.1462C1.75103 15.0942 1.75 13.7358 1.75 11.8442V9.84424C1.75 7.95267 1.75103 6.59423 1.865 5.54228C1.97745 4.50437 2.19259 3.85416 2.56168 3.34615C2.82382 2.98535 3.14111 2.66805 3.50191 2.40592Z" stroke="white"/>
</svg>
