<svg width="38" height="29" viewBox="0 0 38 29" fill="none" xmlns="http://www.w3.org/2000/svg">
<g clip-path="url(#clip0_1252_9168)">
<path d="M6.90833 28.8558V26.9365C6.90833 26.2005 6.45203 25.7208 5.66991 25.7208C5.27893 25.7208 4.85529 25.8487 4.56197 26.2646C4.33397 25.9127 4.00815 25.7208 3.51935 25.7208C3.19338 25.7208 2.86771 25.8167 2.6069 26.1686V25.7848H1.92261V28.8558H2.6069V27.1603C2.6069 26.6166 2.90022 26.3605 3.35651 26.3605C3.81251 26.3605 4.04081 26.6485 4.04081 27.1603V28.8558H4.72511V27.1603C4.72511 26.6166 5.05078 26.3605 5.47442 26.3605C5.93072 26.3605 6.15872 26.6485 6.15872 27.1603V28.8558H6.90833ZM17.0423 25.7848H15.9345V24.8571H15.2502V25.7848H14.6311V26.3924H15.2501V27.8002C15.2501 28.5041 15.5434 28.9198 16.3255 28.9198C16.6188 28.9198 16.9445 28.8239 17.1728 28.696L16.9771 28.1201C16.7816 28.248 16.5536 28.2801 16.3907 28.2801C16.0648 28.2801 15.9345 28.0881 15.9345 27.7681V26.3924H17.0423V25.7848ZM22.8426 25.7206C22.4517 25.7206 22.191 25.9127 22.028 26.1686V25.7848H21.3437V28.8558H22.028V27.1284C22.028 26.6166 22.256 26.3286 22.6797 26.3286C22.81 26.3286 22.973 26.3607 23.1033 26.3926L23.2988 25.7528C23.1685 25.7208 22.973 25.7208 22.8426 25.7208V25.7206ZM14.0771 26.0407C13.7511 25.8167 13.295 25.7208 12.8062 25.7208C12.0242 25.7208 11.5029 26.1046 11.5029 26.7125C11.5029 27.2244 11.8939 27.5122 12.5782 27.6083L12.904 27.6403C13.2625 27.7042 13.458 27.8002 13.458 27.9602C13.458 28.184 13.1973 28.344 12.741 28.344C12.2849 28.344 11.9264 28.184 11.6983 28.0242L11.3724 28.536C11.7309 28.7919 12.2197 28.9198 12.7084 28.9198C13.6208 28.9198 14.1423 28.5041 14.1423 27.9281C14.1423 27.3843 13.7186 27.0963 13.0668 27.0004L12.741 26.9684C12.4477 26.9363 12.2197 26.8725 12.2197 26.6806C12.2197 26.4566 12.4477 26.3286 12.8062 26.3286C13.1973 26.3286 13.5883 26.4885 13.7838 26.5845L14.0771 26.0407ZM32.26 25.7208C31.8688 25.7208 31.6082 25.9127 31.4452 26.1686V25.7848H30.7609V28.8558H31.4452V27.1284C31.4452 26.6166 31.6733 26.3286 32.0968 26.3286C32.2273 26.3286 32.3903 26.3607 32.5206 26.3926L32.7161 25.7528C32.5858 25.7208 32.3903 25.7208 32.26 25.7208ZM23.5269 27.3203C23.5269 28.248 24.1786 28.9198 25.1888 28.9198C25.645 28.9198 25.9708 28.8239 26.2966 28.568L25.9708 28.0242C25.7102 28.2161 25.4495 28.312 25.1562 28.312C24.6022 28.312 24.2112 27.9281 24.2112 27.3203C24.2112 26.7445 24.6022 26.3605 25.1562 26.3286C25.4495 26.3286 25.7102 26.4245 25.9708 26.6166L26.2966 26.0727C25.9708 25.8167 25.645 25.7208 25.1888 25.7208C24.1786 25.7208 23.5269 26.3926 23.5269 27.3203ZM29.8486 27.3203V25.7848H29.1643V26.1686C28.9362 25.8808 28.6103 25.7208 28.1867 25.7208C27.3069 25.7208 26.6226 26.3926 26.6226 27.3203C26.6226 28.248 27.3069 28.9198 28.1867 28.9198C28.6428 28.9198 28.9688 28.76 29.1643 28.472V28.8558H29.8486V27.3203ZM27.3394 27.3203C27.3394 26.7764 27.6979 26.3286 28.2844 26.3286C28.8383 26.3286 29.2295 26.7445 29.2295 27.3203C29.2295 27.8642 28.8383 28.312 28.2844 28.312C27.6979 28.2799 27.3394 27.8642 27.3394 27.3203ZM19.1605 25.7208C18.2481 25.7208 17.5963 26.3605 17.5963 27.3203C17.5963 28.2801 18.2479 28.9198 19.193 28.9198C19.6492 28.9198 20.1055 28.7919 20.4639 28.5041L20.138 28.0242C19.8773 28.2161 19.5515 28.344 19.2257 28.344C18.802 28.344 18.3784 28.1521 18.2806 27.6081H20.5943V27.3524C20.6269 26.3605 20.0404 25.7208 19.1605 25.7208ZM19.1605 26.2966C19.584 26.2966 19.8775 26.5526 19.9425 27.0325H18.3132C18.3784 26.6166 18.6717 26.2966 19.1605 26.2966ZM36.1376 27.3203V24.5691H35.4533V26.1686C35.2252 25.8808 34.8993 25.7208 34.4757 25.7208C33.5959 25.7208 32.9116 26.3926 32.9116 27.3203C32.9116 28.248 33.5959 28.9198 34.4757 28.9198C34.932 28.9198 35.2578 28.76 35.4533 28.472V28.8558H36.1376V27.3203ZM33.6286 27.3203C33.6286 26.7764 33.9869 26.3286 34.5735 26.3286C35.1275 26.3286 35.5185 26.7445 35.5185 27.3203C35.5185 27.8642 35.1275 28.312 34.5735 28.312C33.9869 28.2799 33.6286 27.8642 33.6286 27.3203ZM10.7533 27.3203V25.7848H10.069V26.1686C9.84086 25.8808 9.51504 25.7208 9.0914 25.7208C8.21161 25.7208 7.52731 26.3926 7.52731 27.3203C7.52731 28.248 8.21161 28.9198 9.0914 28.9198C9.54769 28.9198 9.87351 28.76 10.069 28.472V28.8558H10.7533V27.3203ZM8.21161 27.3203C8.21161 26.7764 8.57008 26.3286 9.15656 26.3286C9.71053 26.3286 10.1017 26.7445 10.1017 27.3203C10.1017 27.8642 9.71053 28.312 9.15656 28.312C8.57008 28.2799 8.21161 27.8642 8.21161 27.3203Z" fill="white"/>
<path d="M13.8489 2.46313H24.1133V20.5701H13.8489V2.46313Z" fill="#FF5F00"/>
<path d="M14.5007 11.5168C14.5007 7.83787 16.2603 4.57471 18.9648 2.46325C16.9772 0.927709 14.4682 0 11.731 0C5.24623 0 0 5.15049 0 11.5168C0 17.8829 5.24623 23.0336 11.7309 23.0336C14.4681 23.0336 16.9771 22.1059 18.9648 20.5702C16.2603 18.4908 14.5007 15.1957 14.5007 11.5168Z" fill="#EB001B"/>
<path d="M37.9624 11.5168C37.9624 17.8829 32.7162 23.0336 26.2315 23.0336C23.4943 23.0336 20.9853 22.1059 18.9976 20.5702C21.7347 18.4589 23.4618 15.1957 23.4618 11.5168C23.4618 7.83787 21.7021 4.57471 18.9976 2.46325C20.9851 0.927709 23.4943 0 26.2315 0C32.7162 0 37.9624 5.18255 37.9624 11.5168Z" fill="#F79E1B"/>
</g>
<defs>
<clipPath id="clip0_1252_9168">
<rect width="38" height="29" fill="white"/>
</clipPath>
</defs>
</svg>
