<svg width="20" height="20" viewBox="0 0 20 20" fill="none" xmlns="http://www.w3.org/2000/svg">
<path d="M17.3353 3.83976C17.3353 4.76024 16.5891 5.50643 15.6686 5.50643C14.7481 5.50643 14.002 4.76024 14.002 3.83976C14.002 2.91929 14.7481 2.1731 15.6686 2.1731C16.5891 2.1731 17.3353 2.91929 17.3353 3.83976Z" fill="#00C28C" stroke="#FF124B" stroke-width="1.5"/>
<path fill-rule="evenodd" clip-rule="evenodd" d="M18.2982 6.9166C18.1801 6.56718 17.7371 6.48037 17.4237 6.67473C17.1806 6.82547 17.0516 7.12472 17.1402 7.39667C18.0107 10.0676 17.3847 13.1198 15.2623 15.2422C14.3972 16.1072 13.0229 16.9321 11.4879 17.2994C9.96155 17.6645 8.32265 17.5682 6.8671 16.6687L6.82715 16.644C6.68799 16.5577 6.55055 16.4725 6.42812 16.4241C6.20871 16.3372 6.01414 16.3078 5.77885 16.326C5.64792 16.3361 5.51176 16.3716 5.38117 16.4056L5.34682 16.4145C4.81414 16.5526 4.44509 16.6479 4.16143 16.7014C3.87487 16.7554 3.74616 16.7516 3.67846 16.7378C3.26889 16.6544 2.94881 16.3343 2.86545 15.9248C2.85168 15.8571 2.84779 15.7284 2.90183 15.4418C2.95532 15.1581 3.05062 14.7891 3.18869 14.2564L3.19762 14.2221C3.23168 14.0914 3.26721 13.9551 3.27728 13.8237C3.29536 13.5881 3.26549 13.3921 3.17806 13.1726C3.1292 13.0499 3.04389 12.913 2.95771 12.7748L2.93306 12.7352C2.02814 11.2791 1.91585 9.65844 2.2713 8.14601C2.62891 6.62439 3.45376 5.24824 4.36103 4.34097C6.45256 2.24944 9.44698 1.61109 12.0896 2.42592C12.363 2.5102 12.6602 2.37625 12.807 2.13081C12.9964 1.81431 12.9024 1.3729 12.5511 1.26042C9.45759 0.269848 5.93216 1.00207 3.47715 3.45709C2.41075 4.52348 1.46697 6.1048 1.05446 7.86003C0.639788 9.62443 0.75589 11.6 1.87137 13.395C1.92912 13.4879 1.96593 13.5472 1.99221 13.5921C2.00959 13.6218 2.01648 13.6353 2.0181 13.6385C2.02953 13.6677 2.03123 13.6786 2.03148 13.6803C2.03176 13.6821 2.03353 13.6935 2.03105 13.7267C2.03069 13.7293 2.02899 13.7402 2.02336 13.7651C2.01451 13.8042 2.00123 13.8558 1.97867 13.9428L1.97295 13.9649C1.84198 14.4702 1.73571 14.8802 1.67348 15.2102C1.61089 15.5421 1.5775 15.8642 1.64056 16.174C1.82394 17.0751 2.52813 17.7793 3.42918 17.9627C3.73905 18.0257 4.06116 17.9923 4.39307 17.9298C4.72306 17.8675 5.13297 17.7613 5.63824 17.6303L5.66044 17.6246C5.74744 17.602 5.79899 17.5887 5.83817 17.5799C5.86304 17.5742 5.87395 17.5725 5.87655 17.5721C5.91111 17.5695 5.92269 17.5716 5.92269 17.5716C5.92269 17.5716 5.93466 17.5733 5.96419 17.5848C5.96748 17.5865 5.98145 17.5935 6.01133 17.611C6.05656 17.6373 6.11644 17.6743 6.20998 17.7321C8.01261 18.846 10.01 18.9382 11.7787 18.5151C13.5387 18.094 15.1181 17.1541 16.1461 16.1261C18.6371 13.6351 19.3544 10.0422 18.2982 6.9166ZM5.87655 17.5721L5.87515 17.5723L5.87655 17.5721Z" fill="#00C28C"/>
<path d="M7.33619 9.67309C7.33619 10.1333 6.96309 10.5064 6.50285 10.5064C6.04262 10.5064 5.66952 10.1333 5.66952 9.67309C5.66952 9.21285 6.04262 8.83975 6.50285 8.83975C6.96309 8.83975 7.33619 9.21285 7.33619 9.67309Z" fill="#00C28C"/>
<path d="M10.6695 9.67309C10.6695 10.1333 10.2964 10.5064 9.83619 10.5064C9.37595 10.5064 9.00285 10.1333 9.00285 9.67309C9.00285 9.21285 9.37595 8.83975 9.83619 8.83975C10.2964 8.83975 10.6695 9.21285 10.6695 9.67309Z" fill="#00C28C"/>
<path d="M14.0029 9.67309C14.0029 10.1333 13.6298 10.5064 13.1695 10.5064C12.7093 10.5064 12.3362 10.1333 12.3362 9.67309C12.3362 9.21285 12.7093 8.83975 13.1695 8.83975C13.6298 8.83975 14.0029 9.21285 14.0029 9.67309Z" fill="#00C28C"/>
</svg>
