<svg width="21" height="22" viewBox="0 0 21 22" fill="none" xmlns="http://www.w3.org/2000/svg">
<path d="M6.08585 10.2152C6.08585 9.86998 6.36568 9.59016 6.71085 9.59016H13.3775C13.7227 9.59016 14.0025 9.86998 14.0025 10.2152C14.0025 10.5603 13.7227 10.8402 13.3775 10.8402H6.71085C6.36568 10.8402 6.08585 10.5603 6.08585 10.2152Z" fill="#00C28C"/>
<path d="M6.08585 13.5485C6.08585 13.2033 6.36568 12.9235 6.71085 12.9235H13.3775C13.7227 12.9235 14.0025 13.2033 14.0025 13.5485C14.0025 13.8937 13.7227 14.1735 13.3775 14.1735H6.71085C6.36568 14.1735 6.08585 13.8937 6.08585 13.5485Z" fill="#00C28C"/>
<path fill-rule="evenodd" clip-rule="evenodd" d="M3.68515 5.66583C7.1836 2.16738 12.8557 2.16738 16.3542 5.66583C19.8526 9.16427 19.8526 14.8364 16.3542 18.3348C15.3261 19.3628 13.7467 20.3028 11.9867 20.7238C10.218 21.1469 8.22061 21.0548 6.41799 19.9408C6.32445 19.883 6.26457 19.846 6.21934 19.8197C6.18863 19.8018 6.17498 19.795 6.17219 19.7935C6.14182 19.7817 6.13158 19.7805 6.13069 19.7803C6.12926 19.7801 6.11789 19.7783 6.08316 19.781C6.08923 19.7805 6.08306 19.7802 6.04618 19.7886C6.007 19.7975 5.95545 19.8108 5.86845 19.8333L5.84637 19.839C5.34104 19.97 4.9311 20.0763 4.60107 20.1385C4.26916 20.2011 3.94705 20.2345 3.63719 20.1714C2.73614 19.988 2.03195 19.2838 1.84857 18.3828C1.78551 18.0729 1.81889 17.7508 1.88148 17.4189C1.94372 17.0889 2.04997 16.6789 2.18095 16.1736L2.18668 16.1515C2.20924 16.0645 2.22252 16.013 2.23137 15.9738C2.23969 15.937 2.23941 15.9309 2.23895 15.9369C2.24159 15.9025 2.2398 15.8911 2.23953 15.8893C2.23927 15.8876 2.23765 15.8767 2.22621 15.8475C2.22479 15.8447 2.21798 15.8312 2.20021 15.8008C2.17394 15.756 2.13713 15.6966 2.07938 15.6037C0.963898 13.8088 0.847796 11.8332 1.26247 10.0688C1.67498 8.31354 2.61876 6.73222 3.68515 5.66583ZM15.4703 6.54971C12.46 3.53942 7.57933 3.53942 4.56904 6.54971C3.66177 7.45698 2.83692 8.83313 2.47931 10.3547C2.12386 11.8672 2.23615 13.4878 3.14107 14.9439C3.14927 14.9571 3.1575 14.9703 3.16572 14.9835C3.2519 15.1218 3.3372 15.2587 3.38607 15.3814C3.4735 15.6009 3.50337 15.7969 3.48529 16.0325C3.47521 16.1638 3.43968 16.3002 3.40563 16.4308C3.40263 16.4423 3.39965 16.4538 3.3967 16.4652C3.25863 16.9978 3.16333 17.3669 3.10984 17.6505C3.0558 17.9371 3.05968 18.0658 3.07346 18.1335C3.15681 18.5431 3.4769 18.8632 3.88647 18.9465C3.95417 18.9603 4.08288 18.9642 4.36944 18.9101C4.6531 18.8567 5.02214 18.7613 5.55482 18.6233C5.56623 18.6203 5.5777 18.6173 5.5892 18.6143C5.71978 18.5803 5.85593 18.5448 5.98686 18.5347C6.22215 18.5165 6.41672 18.5459 6.63613 18.6328C6.75855 18.6813 6.89597 18.7665 7.03514 18.8527C7.04845 18.861 7.06178 18.8692 7.07511 18.8775C8.53066 19.777 10.1696 19.8732 11.6959 19.5081C13.231 19.1409 14.6052 18.316 15.4703 17.4509C18.4806 14.4406 18.4806 9.56 15.4703 6.54971Z" fill="#00C28C"/>
<path d="M6.08585 10.2152C6.08585 9.86998 6.36568 9.59016 6.71085 9.59016H13.3775C13.7227 9.59016 14.0025 9.86998 14.0025 10.2152C14.0025 10.5603 13.7227 10.8402 13.3775 10.8402H6.71085C6.36568 10.8402 6.08585 10.5603 6.08585 10.2152Z" stroke="#00C28C"/>
<path d="M6.08585 13.5485C6.08585 13.2033 6.36568 12.9235 6.71085 12.9235H13.3775C13.7227 12.9235 14.0025 13.2033 14.0025 13.5485C14.0025 13.8937 13.7227 14.1735 13.3775 14.1735H6.71085C6.36568 14.1735 6.08585 13.8937 6.08585 13.5485Z" stroke="#00C28C"/>
<path fill-rule="evenodd" clip-rule="evenodd" d="M3.68515 5.66583C7.1836 2.16738 12.8557 2.16738 16.3542 5.66583C19.8526 9.16427 19.8526 14.8364 16.3542 18.3348C15.3261 19.3628 13.7467 20.3028 11.9867 20.7238C10.218 21.1469 8.22061 21.0548 6.41799 19.9408C6.32445 19.883 6.26457 19.846 6.21934 19.8197C6.18863 19.8018 6.17498 19.795 6.17219 19.7935C6.14182 19.7817 6.13158 19.7805 6.13069 19.7803C6.12926 19.7801 6.11789 19.7783 6.08316 19.781C6.08923 19.7805 6.08306 19.7802 6.04618 19.7886C6.007 19.7975 5.95545 19.8108 5.86845 19.8333L5.84637 19.839C5.34104 19.97 4.9311 20.0763 4.60107 20.1385C4.26916 20.2011 3.94705 20.2345 3.63719 20.1714C2.73614 19.988 2.03195 19.2838 1.84857 18.3828C1.78551 18.0729 1.81889 17.7508 1.88148 17.4189C1.94372 17.0889 2.04997 16.6789 2.18095 16.1736L2.18668 16.1515C2.20924 16.0645 2.22252 16.013 2.23137 15.9738C2.23969 15.937 2.23941 15.9309 2.23895 15.9369C2.24159 15.9025 2.2398 15.8911 2.23953 15.8893C2.23927 15.8876 2.23765 15.8767 2.22621 15.8475C2.22479 15.8447 2.21798 15.8312 2.20021 15.8008C2.17394 15.756 2.13713 15.6966 2.07938 15.6037C0.963898 13.8088 0.847796 11.8332 1.26247 10.0688C1.67498 8.31354 2.61876 6.73222 3.68515 5.66583ZM15.4703 6.54971C12.46 3.53942 7.57933 3.53942 4.56904 6.54971C3.66177 7.45698 2.83692 8.83313 2.47931 10.3547C2.12386 11.8672 2.23615 13.4878 3.14107 14.9439C3.14927 14.9571 3.1575 14.9703 3.16572 14.9835C3.2519 15.1218 3.3372 15.2587 3.38607 15.3814C3.4735 15.6009 3.50337 15.7969 3.48529 16.0325C3.47521 16.1638 3.43968 16.3002 3.40563 16.4308C3.40263 16.4423 3.39965 16.4538 3.3967 16.4652C3.25863 16.9978 3.16333 17.3669 3.10984 17.6505C3.0558 17.9371 3.05968 18.0658 3.07346 18.1335C3.15681 18.5431 3.4769 18.8632 3.88647 18.9465C3.95417 18.9603 4.08288 18.9642 4.36944 18.9101C4.6531 18.8567 5.02214 18.7613 5.55482 18.6233C5.56623 18.6203 5.5777 18.6173 5.5892 18.6143C5.71978 18.5803 5.85593 18.5448 5.98686 18.5347C6.22215 18.5165 6.41672 18.5459 6.63613 18.6328C6.75855 18.6813 6.89597 18.7665 7.03514 18.8527C7.04845 18.861 7.06178 18.8692 7.07511 18.8775C8.53066 19.777 10.1696 19.8732 11.6959 19.5081C13.231 19.1409 14.6052 18.316 15.4703 17.4509C18.4806 14.4406 18.4806 9.56 15.4703 6.54971Z" stroke="#00C28C"/>
<rect x="11" y="3" width="8" height="6" fill="white"/>
<path fill-rule="evenodd" clip-rule="evenodd" d="M15 11C17.7614 11 20 8.76142 20 6C20 3.23858 17.7614 1 15 1C12.2386 1 10 3.23858 10 6C10 8.76142 12.2386 11 15 11ZM17.7794 4.75014C17.9175 4.59583 17.9044 4.35876 17.7501 4.22061C17.5958 4.08247 17.3588 4.09556 17.2206 4.24986L15.536 6.13145C15.1947 6.51272 14.9648 6.76814 14.7683 6.93333C14.581 7.0907 14.4711 7.125 14.375 7.125C14.2789 7.125 14.169 7.0907 13.9817 6.93333C13.7852 6.76814 13.5553 6.51272 13.214 6.13145L12.7794 5.64605C12.6412 5.49174 12.4042 5.47865 12.2499 5.61679C12.0956 5.75494 12.0825 5.99202 12.2206 6.14632L12.6738 6.65246C12.9917 7.00759 13.2569 7.30381 13.4992 7.50746C13.7555 7.7229 14.032 7.875 14.375 7.875C14.718 7.875 14.9945 7.7229 15.2508 7.50747C15.4931 7.30381 15.7583 7.0076 16.0762 6.65247L17.7794 4.75014Z" fill="#00CD46"/>
</svg>
