<svg width="24" height="25" viewBox="0 0 24 25" fill="none" xmlns="http://www.w3.org/2000/svg">
<path d="M11.1079 10.5688C11.1079 10.1546 11.4437 9.81882 11.8579 9.81882L15.8579 9.81882C16.2721 9.81882 16.6079 10.1546 16.6079 10.5688C16.6079 10.983 16.2721 11.3188 15.8579 11.3188H11.8579C11.4437 11.3188 11.1079 10.983 11.1079 10.5688Z" fill="white"/>
<path d="M7.10786 14.5688C7.10786 14.1546 7.44365 13.8188 7.85786 13.8188H15.8579C16.2721 13.8188 16.6079 14.1546 16.6079 14.5688C16.6079 14.983 16.2721 15.3188 15.8579 15.3188H7.85786C7.44365 15.3188 7.10786 14.983 7.10786 14.5688Z" fill="white"/>
<path fill-rule="evenodd" clip-rule="evenodd" d="M4.3986 5.10954C8.59674 0.911404 15.4033 0.911404 19.6014 5.10954C20.835 6.34316 21.963 8.23851 22.4682 10.3505C22.9759 12.4729 22.8653 14.8698 21.5286 17.0329C21.4592 17.1452 21.4149 17.217 21.3832 17.2713C21.3618 17.3082 21.3536 17.3245 21.3519 17.3279C21.3377 17.3643 21.3362 17.3766 21.336 17.3777C21.3357 17.3794 21.3336 17.3931 21.3368 17.4347C21.3362 17.4274 21.3359 17.4348 21.3459 17.4791C21.3566 17.5261 21.3725 17.588 21.3996 17.6924L21.4064 17.7189C21.5636 18.3253 21.6911 18.8172 21.7658 19.2132C21.8409 19.6115 21.881 19.9981 21.8053 20.3699C21.5852 21.4512 20.7402 22.2962 19.659 22.5162C19.2871 22.5919 18.9006 22.5518 18.5023 22.4767C18.1063 22.4021 17.6143 22.2745 17.0079 22.1174L16.9814 22.1105C16.877 22.0834 16.8152 22.0675 16.7682 22.0569C16.7384 22.0501 16.7253 22.0481 16.7222 22.0477C16.6813 22.0446 16.6683 22.0469 16.6666 22.0471C16.6651 22.0474 16.6525 22.049 16.6166 22.0631C16.6132 22.0648 16.597 22.073 16.5606 22.0943C16.5068 22.1258 16.4356 22.17 16.3241 22.2393C14.1701 23.5778 11.7994 23.7172 9.68213 23.2196C7.57586 22.7245 5.67827 21.592 4.3986 20.3123C0.200466 16.1142 0.200466 9.30768 4.3986 5.10954ZM18.5407 6.1702C14.9284 2.55785 9.07161 2.55785 5.45926 6.1702C1.84691 9.78255 1.84691 15.6393 5.45926 19.2517C6.54798 20.3404 8.19937 21.3302 10.0253 21.7593C11.8402 22.1859 13.785 22.0511 15.5323 20.9652C15.5482 20.9554 15.564 20.9455 15.5798 20.9357C15.7457 20.8322 15.91 20.7299 16.0572 20.6712C16.3207 20.5663 16.5559 20.5305 16.8386 20.5522C16.9962 20.5643 17.1598 20.6069 17.3166 20.6478C17.3304 20.6514 17.3441 20.6549 17.3578 20.6585C17.997 20.8242 18.4399 20.9385 18.7803 21.0027C19.1241 21.0676 19.2786 21.0629 19.3598 21.0464C19.8513 20.9463 20.2354 20.5622 20.3354 20.0708C20.352 19.9895 20.3566 19.8351 20.2918 19.4912C20.2276 19.1508 20.1132 18.7079 19.9475 18.0687C19.944 18.055 19.9404 18.0413 19.9368 18.0275C19.896 17.8708 19.8534 17.7074 19.8413 17.5503C19.8194 17.2679 19.8547 17.0345 19.959 16.7712C20.0172 16.6243 20.1194 16.4593 20.2229 16.2924C20.2328 16.2764 20.2427 16.2604 20.2526 16.2444C21.332 14.4977 21.4475 12.5311 21.0093 10.6994C20.5687 8.85737 19.5788 7.20823 18.5407 6.1702Z" fill="white"/>
</svg>
