<svg width="24" height="25" viewBox="0 0 24 25" fill="none" xmlns="http://www.w3.org/2000/svg">
<path d="M8.18311 18.7964H16.1831L15.7831 19.4821C13.9831 22.5678 10.3831 22.5678 8.58311 19.4821L8.18311 18.7964Z" fill="#00C28C"/>
<path d="M16.1831 4.14835C15.3084 3.31408 14.1224 2.79639 12.8029 2.79639H11.0999C8.15552 2.79639 5.87737 5.37703 6.24258 8.29872L6.32194 8.93357C6.46808 10.1027 6.04102 11.2705 5.17514 12.0695C3.99242 13.1609 3.66383 14.898 4.36619 16.346L4.46954 16.5591C5.13331 17.9275 6.52054 18.7964 8.04144 18.7964H16.2623C17.5656 18.7964 18.7785 18.1306 19.4783 17.031C20.4661 15.479 20.2045 13.4429 18.8564 12.1909L18.8125 12.1502C18.5689 11.9239 18.3582 11.6702 18.1831 11.3962M8.18311 18.7964L8.58311 19.4821C10.3831 22.5678 13.9831 22.5678 15.7831 19.4821L16.1831 18.7964" stroke="#00C28C" stroke-width="1.5" stroke-linecap="round"/>
<path d="M19.1831 7.79639C19.1831 8.90096 18.2877 9.79639 17.1831 9.79639C16.0785 9.79639 15.1831 8.90096 15.1831 7.79639C15.1831 6.69182 16.0785 5.79639 17.1831 5.79639C18.2877 5.79639 19.1831 6.69182 19.1831 7.79639Z" fill="#2D264B"/>
</svg>
