<svg width="24" height="24" viewBox="0 0 24 24" fill="none" xmlns="http://www.w3.org/2000/svg">
<path fill-rule="evenodd" clip-rule="evenodd" d="M12.75 0.844238C12.75 0.430025 12.4142 0.0942383 12 0.0942383C11.5858 0.0942383 11.25 0.430025 11.25 0.844238V4.09462C9.88371 4.098 8.98624 4.12772 8.22315 4.37566C6.47263 4.94444 5.1002 6.31687 4.53143 8.06739C4.28348 8.83048 4.25376 9.72795 4.25038 11.0942H1C0.585786 11.0942 0.25 11.43 0.25 11.8442C0.25 12.2585 0.585786 12.5942 1 12.5942H4.25038C4.25376 13.9605 4.28348 14.858 4.53143 15.6211C5.1002 17.3716 6.47263 18.744 8.22315 19.3128C8.98624 19.5608 9.88371 19.5905 11.25 19.5939V22.8442C11.25 23.2585 11.5858 23.5942 12 23.5942C12.4142 23.5942 12.75 23.2585 12.75 22.8442V19.5939C14.1163 19.5905 15.0138 19.5608 15.7768 19.3128C17.5274 18.744 18.8998 17.3716 19.4686 15.6211C19.7165 14.858 19.7462 13.9605 19.7496 12.5942H23C23.4142 12.5942 23.75 12.2585 23.75 11.8442C23.75 11.43 23.4142 11.0942 23 11.0942H19.7496C19.7462 9.72795 19.7165 8.83048 19.4686 8.06739C18.8998 6.31687 17.5274 4.94444 15.7768 4.37566C15.0138 4.12772 14.1163 4.098 12.75 4.09462V0.844238ZM8.68668 5.80225C9.21174 5.63164 9.86224 5.60066 11.25 5.59531V5.84424C11.25 6.25845 11.5858 6.59424 12 6.59424C12.4142 6.59424 12.75 6.25845 12.75 5.84424V5.59531C14.1378 5.60066 14.7883 5.63164 15.3133 5.80225C16.6072 6.22265 17.6216 7.23705 18.042 8.53092C18.2126 9.05598 18.2436 9.70648 18.2489 11.0942H18C17.5858 11.0942 17.25 11.43 17.25 11.8442C17.25 12.2585 17.5858 12.5942 18 12.5942H18.2489C18.2436 13.982 18.2126 14.6325 18.042 15.1576C17.6216 16.4514 16.6072 17.4658 15.3133 17.8862C14.7883 18.0568 14.1378 18.0878 12.75 18.0932V17.8442C12.75 17.43 12.4142 17.0942 12 17.0942C11.5858 17.0942 11.25 17.43 11.25 17.8442V18.0932C9.86224 18.0878 9.21174 18.0568 8.68668 17.8862C7.39282 17.4658 6.37841 16.4514 5.95801 15.1576C5.78741 14.6325 5.75642 13.982 5.75107 12.5942H6C6.41421 12.5942 6.75 12.2585 6.75 11.8442C6.75 11.43 6.41421 11.0942 6 11.0942H5.75107C5.75642 9.70648 5.78741 9.05598 5.95801 8.53092C6.37841 7.23705 7.39282 6.22265 8.68668 5.80225Z" fill="white"/>
<path fill-rule="evenodd" clip-rule="evenodd" d="M9.5 11.8442C9.5 13.2249 10.6193 14.3442 12 14.3442C13.3807 14.3442 14.5 13.2249 14.5 11.8442C14.5 10.4635 13.3807 9.34424 12 9.34424C10.6193 9.34424 9.5 10.4635 9.5 11.8442ZM11 11.8442C11 12.3965 11.4477 12.8442 12 12.8442C12.5523 12.8442 13 12.3965 13 11.8442C13 11.292 12.5523 10.8442 12 10.8442C11.4477 10.8442 11 11.292 11 11.8442Z" fill="white"/>
</svg>
