<svg width="20" height="20" viewBox="0 0 20 20" fill="none" xmlns="http://www.w3.org/2000/svg">
<path fill-rule="evenodd" clip-rule="evenodd" d="M9.99984 1.0415C7.81371 1.0415 6.0415 2.81371 6.0415 4.99984C6.0415 7.18596 7.81371 8.95817 9.99984 8.95817C12.186 8.95817 13.9582 7.18596 13.9582 4.99984C13.9582 2.81371 12.186 1.0415 9.99984 1.0415ZM7.2915 4.99984C7.2915 3.50407 8.50407 2.2915 9.99984 2.2915C11.4956 2.2915 12.7082 3.50407 12.7082 4.99984C12.7082 6.49561 11.4956 7.70817 9.99984 7.70817C8.50407 7.70817 7.2915 6.49561 7.2915 4.99984Z" fill="#00CD46"/>
<path fill-rule="evenodd" clip-rule="evenodd" d="M7.49984 10.2082C5.31371 10.2082 3.5415 11.9804 3.5415 14.1665C3.5415 16.3526 5.31371 18.1248 7.49984 18.1248H12.4998C14.686 18.1248 16.4582 16.3526 16.4582 14.1665C16.4582 11.9804 14.686 10.2082 12.4998 10.2082H7.49984ZM4.7915 14.1665C4.7915 12.6707 6.00407 11.4582 7.49984 11.4582H12.4998C13.9956 11.4582 15.2082 12.6707 15.2082 14.1665C15.2082 15.6623 13.9956 16.8748 12.4998 16.8748H7.49984C6.00407 16.8748 4.7915 15.6623 4.7915 14.1665Z" fill="#00CD46"/>
<path fill-rule="evenodd" clip-rule="evenodd" d="M9.99984 1.0415C7.81371 1.0415 6.0415 2.81371 6.0415 4.99984C6.0415 7.18596 7.81371 8.95817 9.99984 8.95817C12.186 8.95817 13.9582 7.18596 13.9582 4.99984C13.9582 2.81371 12.186 1.0415 9.99984 1.0415ZM7.2915 4.99984C7.2915 3.50407 8.50407 2.2915 9.99984 2.2915C11.4956 2.2915 12.7082 3.50407 12.7082 4.99984C12.7082 6.49561 11.4956 7.70817 9.99984 7.70817C8.50407 7.70817 7.2915 6.49561 7.2915 4.99984Z" stroke="#00CD46"/>
<path fill-rule="evenodd" clip-rule="evenodd" d="M7.49984 10.2082C5.31371 10.2082 3.5415 11.9804 3.5415 14.1665C3.5415 16.3526 5.31371 18.1248 7.49984 18.1248H12.4998C14.686 18.1248 16.4582 16.3526 16.4582 14.1665C16.4582 11.9804 14.686 10.2082 12.4998 10.2082H7.49984ZM4.7915 14.1665C4.7915 12.6707 6.00407 11.4582 7.49984 11.4582H12.4998C13.9956 11.4582 15.2082 12.6707 15.2082 14.1665C15.2082 15.6623 13.9956 16.8748 12.4998 16.8748H7.49984C6.00407 16.8748 4.7915 15.6623 4.7915 14.1665Z" stroke="#00CD46"/>
</svg>
