<svg width="12" height="13" viewBox="0 0 12 13" fill="none" xmlns="http://www.w3.org/2000/svg">
<path d="M0.166992 4.74984C0.166992 4.28571 0.351367 3.84059 0.679555 3.5124C1.00774 3.18421 1.45286 2.99984 1.91699 2.99984H3.58124C3.75449 2.99984 3.86124 2.81959 3.79474 2.65975C3.76115 2.58118 3.7346 2.49978 3.71541 2.4165C3.52233 1.54909 4.17741 0.666504 5.12533 0.666504C6.07383 0.666504 6.72833 1.54909 6.53524 2.4165C6.51603 2.49977 6.48949 2.58117 6.45591 2.65975C6.38883 2.81959 6.49616 2.99984 6.66941 2.99984H7.75033C8.21445 2.99984 8.65957 3.18421 8.98776 3.5124C9.31595 3.84059 9.50033 4.28571 9.50033 4.74984V5.83075C9.50033 6.004 9.67999 6.11075 9.84041 6.04425C9.91916 6.01159 9.99966 5.98359 10.0837 5.96492C10.9511 5.77184 11.8337 6.42634 11.8337 7.37484C11.8337 8.32334 10.9511 8.97784 10.0837 8.78475C10.0004 8.76556 9.91898 8.73901 9.84041 8.70542C9.68058 8.63834 9.50033 8.74567 9.50033 8.91892V10.5832C9.50033 11.0473 9.31595 11.4924 8.98776 11.8206C8.65957 12.1488 8.21445 12.3332 7.75033 12.3332H6.64608C6.47808 12.3332 6.37016 12.1634 6.41858 12.003C6.44249 11.9213 6.46058 11.8373 6.46816 11.7498C6.48366 11.5641 6.46045 11.3771 6.4 11.2008C6.33956 11.0245 6.24318 10.8626 6.11698 10.7254C5.99077 10.5883 5.83748 10.4788 5.66679 10.4039C5.4961 10.329 5.31173 10.2903 5.12533 10.2903C4.93893 10.2903 4.75455 10.329 4.58386 10.4039C4.41317 10.4788 4.25988 10.5883 4.13367 10.7254C4.00747 10.8626 3.9111 11.0245 3.85065 11.2008C3.7902 11.3771 3.76699 11.5641 3.78249 11.7498C3.79008 11.8373 3.80816 11.9213 3.83266 12.003C3.88049 12.1634 3.77258 12.3332 3.60516 12.3332H1.91699C1.45286 12.3332 1.00774 12.1488 0.679555 11.8206C0.351367 11.4924 0.166992 11.0473 0.166992 10.5832V8.89559C0.166992 8.72759 0.336742 8.61967 0.497159 8.66809C0.578826 8.692 0.662825 8.71009 0.750326 8.71767C0.93608 8.73317 1.12303 8.70996 1.29936 8.64951C1.47568 8.58907 1.63755 8.49269 1.77473 8.36649C1.9119 8.24028 2.0214 8.08699 2.0963 7.9163C2.1712 7.74561 2.20987 7.56124 2.20987 7.37484C2.20987 7.18844 2.1712 7.00406 2.0963 6.83337C2.0214 6.66269 1.9119 6.50939 1.77473 6.38319C1.63755 6.25698 1.47568 6.16061 1.29936 6.10016C1.12303 6.03971 0.93608 6.0165 0.750326 6.032C0.662825 6.03959 0.578826 6.05767 0.497159 6.08217C0.336742 6.13 0.166992 6.02209 0.166992 5.85467V4.74984Z" fill="#FF124B"/>
</svg>
