<svg width="19" height="20" viewBox="0 0 19 20" fill="none" xmlns="http://www.w3.org/2000/svg">
<path fill-rule="evenodd" clip-rule="evenodd" d="M18.9111 5.99468C19.5223 2.80808 16.7246 0.010463 13.538 0.621601L4.38899 2.37625C2.40015 2.75767 0.809605 4.26312 0.304279 6.21929C-0.70463 10.1249 2.91741 13.6943 6.8065 12.5506C6.9139 12.519 7.01368 12.6188 6.9821 12.7262C5.83842 16.6153 9.40785 20.2374 13.3135 19.2285C15.2696 18.7231 16.7751 17.1326 17.1565 15.1437L18.9111 5.99468ZM13.8206 2.09475C15.9659 1.68331 17.8494 3.56679 17.438 5.71215L15.6834 14.8612C15.412 16.2761 14.3377 17.4146 12.9383 17.7762C10.1412 18.4987 7.61175 15.9018 8.42117 13.1494C8.78769 11.903 7.62969 10.745 6.3833 11.1116C3.6309 11.921 1.03404 9.39158 1.7566 6.59446C2.11811 5.19503 3.25663 4.12075 4.67152 3.8494L13.8206 2.09475Z" fill="#00C28C"/>
</svg>
