<svg width="18" height="19" viewBox="0 0 18 19" fill="none" xmlns="http://www.w3.org/2000/svg">
<path fill-rule="evenodd" clip-rule="evenodd" d="M8.9993 6.37505C7.27341 6.37505 5.8743 7.77416 5.8743 9.50005C5.8743 11.2259 7.27341 12.6251 8.9993 12.6251C10.7252 12.6251 12.1243 11.2259 12.1243 9.50005C12.1243 7.77416 10.7252 6.37505 8.9993 6.37505ZM7.1243 9.50005C7.1243 8.46452 7.96377 7.62505 8.9993 7.62505C10.0348 7.62505 10.8743 8.46452 10.8743 9.50005C10.8743 10.5356 10.0348 11.3751 8.9993 11.3751C7.96377 11.3751 7.1243 10.5356 7.1243 9.50005Z" fill="#00C28C"/>
<path fill-rule="evenodd" clip-rule="evenodd" d="M11.8449 2.19362C11.0279 -0.669196 6.97072 -0.669195 6.15371 2.19362C5.90057 3.08063 4.98928 3.60676 4.09454 3.38248C1.20677 2.65862 -0.821818 6.17224 1.24895 8.3112C1.89055 8.97392 1.89055 10.0262 1.24895 10.6889C-0.821819 12.8279 1.20677 16.3415 4.09454 15.6176C4.98928 15.3934 5.90057 15.9195 6.15371 16.8065C6.97072 19.6693 11.0279 19.6693 11.8449 16.8065C12.098 15.9195 13.0093 15.3934 13.9041 15.6176C16.7918 16.3415 18.8204 12.8279 16.7497 10.6889C16.1081 10.0262 16.1081 8.97392 16.7497 8.3112C18.8204 6.17224 16.7918 2.65862 13.9041 3.38248C13.0093 3.60676 12.098 3.08063 11.8449 2.19362ZM7.35572 2.53666C7.82761 0.883125 10.171 0.883125 10.6429 2.53666C11.0812 4.07236 12.6589 4.98327 14.208 4.59497C15.8759 4.17688 17.0476 6.2063 15.8516 7.44175C14.7408 8.58915 14.7408 10.411 15.8516 11.5584C17.0476 12.7938 15.8759 14.8232 14.208 14.4051C12.6589 14.0168 11.0812 14.9278 10.6429 16.4635C10.171 18.117 7.82761 18.117 7.35572 16.4635C6.91745 14.9278 5.33971 14.0168 3.79062 14.4051C2.12267 14.8232 0.950978 12.7938 2.14703 11.5584C3.25785 10.411 3.25785 8.58915 2.14703 7.44175C0.950978 6.2063 2.12267 4.17688 3.79062 4.59497C5.33971 4.98327 6.91745 4.07236 7.35572 2.53666Z" fill="#00C28C"/>
<path fill-rule="evenodd" clip-rule="evenodd" d="M8.9993 6.37505C7.27341 6.37505 5.8743 7.77416 5.8743 9.50005C5.8743 11.2259 7.27341 12.6251 8.9993 12.6251C10.7252 12.6251 12.1243 11.2259 12.1243 9.50005C12.1243 7.77416 10.7252 6.37505 8.9993 6.37505ZM7.1243 9.50005C7.1243 8.46452 7.96377 7.62505 8.9993 7.62505C10.0348 7.62505 10.8743 8.46452 10.8743 9.50005C10.8743 10.5356 10.0348 11.3751 8.9993 11.3751C7.96377 11.3751 7.1243 10.5356 7.1243 9.50005Z" stroke="#00C28C"/>
<path fill-rule="evenodd" clip-rule="evenodd" d="M11.8449 2.19362C11.0279 -0.669196 6.97072 -0.669195 6.15371 2.19362C5.90057 3.08063 4.98928 3.60676 4.09454 3.38248C1.20677 2.65862 -0.821818 6.17224 1.24895 8.3112C1.89055 8.97392 1.89055 10.0262 1.24895 10.6889C-0.821819 12.8279 1.20677 16.3415 4.09454 15.6176C4.98928 15.3934 5.90057 15.9195 6.15371 16.8065C6.97072 19.6693 11.0279 19.6693 11.8449 16.8065C12.098 15.9195 13.0093 15.3934 13.9041 15.6176C16.7918 16.3415 18.8204 12.8279 16.7497 10.6889C16.1081 10.0262 16.1081 8.97392 16.7497 8.3112C18.8204 6.17224 16.7918 2.65862 13.9041 3.38248C13.0093 3.60676 12.098 3.08063 11.8449 2.19362ZM7.35572 2.53666C7.82761 0.883125 10.171 0.883125 10.6429 2.53666C11.0812 4.07236 12.6589 4.98327 14.208 4.59497C15.8759 4.17688 17.0476 6.2063 15.8516 7.44175C14.7408 8.58915 14.7408 10.411 15.8516 11.5584C17.0476 12.7938 15.8759 14.8232 14.208 14.4051C12.6589 14.0168 11.0812 14.9278 10.6429 16.4635C10.171 18.117 7.82761 18.117 7.35572 16.4635C6.91745 14.9278 5.33971 14.0168 3.79062 14.4051C2.12267 14.8232 0.950978 12.7938 2.14703 11.5584C3.25785 10.411 3.25785 8.58915 2.14703 7.44175C0.950978 6.2063 2.12267 4.17688 3.79062 4.59497C5.33971 4.98327 6.91745 4.07236 7.35572 2.53666Z" stroke="#00C28C"/>
</svg>
