<svg width="20" height="22" viewBox="0 0 20 22" fill="none" xmlns="http://www.w3.org/2000/svg">
<path d="M13.584 9.31481C13.8439 8.99227 13.7931 8.52012 13.4705 8.26023C13.148 8.00034 12.6758 8.05113 12.416 8.37366L10.3944 10.8825C9.97937 11.3976 9.71747 11.7197 9.4995 11.9233C9.39707 12.019 9.33164 12.0615 9.29405 12.0803C9.26605 12.0943 9.25605 12.0943 9.25068 12.0942H9.24923C9.24386 12.0943 9.23386 12.0943 9.20586 12.0803C9.16827 12.0615 9.10284 12.019 9.00041 11.9233C8.78244 11.7197 8.52054 11.3976 8.10546 10.8825L7.58396 10.2352C7.32407 9.9127 6.85192 9.86192 6.52938 10.1218C6.20685 10.3817 6.15606 10.8538 6.41595 11.1764L6.97003 11.864C7.34254 12.3264 7.67119 12.7343 7.9766 13.0196C8.30452 13.3258 8.71222 13.5942 9.24996 13.5942C9.78769 13.5942 10.1954 13.3258 10.5233 13.0196C10.8287 12.7343 11.1574 12.3264 11.5299 11.864L13.584 9.31481Z" fill="white"/>
<path fill-rule="evenodd" clip-rule="evenodd" d="M7.56284 0.0942383C6.02104 0.0942383 4.77117 1.34411 4.77117 2.8859C4.77117 3.59927 4.19287 4.17757 3.4795 4.17757H3.17064C1.59458 4.17757 0.190667 5.39696 0.276174 7.09072C0.377698 9.10173 0.824351 12.2361 2.4535 15.205C2.9098 16.0366 3.51919 16.8534 4.17795 17.6145L4.22755 17.6718C5.17522 18.7668 5.96537 19.6798 6.81485 20.3022C7.72853 20.9715 8.70371 21.305 10 21.305C11.2963 21.305 12.2715 20.9715 13.1852 20.3022C14.0346 19.6798 14.8248 18.7668 15.7725 17.6718L15.8221 17.6145C16.4808 16.8534 17.0902 16.0366 17.5465 15.205C19.2298 12.1373 19.6496 8.6709 19.7324 6.50985C19.7969 4.82423 18.403 3.59424 16.8182 3.59424H16.2288C15.6766 3.59424 15.2288 3.14652 15.2288 2.59424C15.2288 1.21353 14.1096 0.0942383 12.7288 0.0942383H7.56284ZM6.27117 2.8859C6.27117 2.17254 6.84947 1.59424 7.56284 1.59424H12.7288C13.2811 1.59424 13.7288 2.04195 13.7288 2.59424C13.7288 3.97495 14.8481 5.09424 16.2288 5.09424H16.8182C17.6558 5.09424 18.2616 5.71734 18.2335 6.45242C18.1544 8.51717 17.7518 11.7129 16.2315 14.4834C15.8425 15.1922 15.304 15.9211 14.6879 16.6329C13.6778 17.7999 12.9957 18.5815 12.2987 19.0921C11.6512 19.5665 10.9888 19.805 10 19.805C9.0112 19.805 8.34886 19.5665 7.70131 19.0921C7.00433 18.5815 6.32224 17.7999 5.31212 16.6329C4.69604 15.9211 4.15747 15.1922 3.76853 14.4834C2.29005 11.789 1.86972 8.90582 1.77427 7.01509C1.73795 6.29573 2.3305 5.67757 3.17064 5.67757H3.4795C5.0213 5.67757 6.27117 4.4277 6.27117 2.8859Z" fill="white"/>
<path d="M13.584 9.31481C13.8439 8.99227 13.7931 8.52012 13.4705 8.26023C13.148 8.00034 12.6758 8.05113 12.416 8.37366L10.3944 10.8825C9.97937 11.3976 9.71747 11.7197 9.4995 11.9233C9.39707 12.019 9.33164 12.0615 9.29405 12.0803C9.26605 12.0943 9.25605 12.0943 9.25068 12.0942H9.24923C9.24386 12.0943 9.23386 12.0943 9.20586 12.0803C9.16827 12.0615 9.10284 12.019 9.00041 11.9233C8.78244 11.7197 8.52054 11.3976 8.10546 10.8825L7.58396 10.2352C7.32407 9.9127 6.85192 9.86192 6.52938 10.1218C6.20685 10.3817 6.15606 10.8538 6.41595 11.1764L6.97003 11.864C7.34254 12.3264 7.67119 12.7343 7.9766 13.0196C8.30452 13.3258 8.71222 13.5942 9.24996 13.5942C9.78769 13.5942 10.1954 13.3258 10.5233 13.0196C10.8287 12.7343 11.1574 12.3264 11.5299 11.864L13.584 9.31481Z" stroke="white"/>
<path fill-rule="evenodd" clip-rule="evenodd" d="M7.56284 0.0942383C6.02104 0.0942383 4.77117 1.34411 4.77117 2.8859C4.77117 3.59927 4.19287 4.17757 3.4795 4.17757H3.17064C1.59458 4.17757 0.190667 5.39696 0.276174 7.09072C0.377698 9.10173 0.824351 12.2361 2.4535 15.205C2.9098 16.0366 3.51919 16.8534 4.17795 17.6145L4.22755 17.6718C5.17522 18.7668 5.96537 19.6798 6.81485 20.3022C7.72853 20.9715 8.70371 21.305 10 21.305C11.2963 21.305 12.2715 20.9715 13.1852 20.3022C14.0346 19.6798 14.8248 18.7668 15.7725 17.6718L15.8221 17.6145C16.4808 16.8534 17.0902 16.0366 17.5465 15.205C19.2298 12.1373 19.6496 8.6709 19.7324 6.50985C19.7969 4.82423 18.403 3.59424 16.8182 3.59424H16.2288C15.6766 3.59424 15.2288 3.14652 15.2288 2.59424C15.2288 1.21353 14.1096 0.0942383 12.7288 0.0942383H7.56284ZM6.27117 2.8859C6.27117 2.17254 6.84947 1.59424 7.56284 1.59424H12.7288C13.2811 1.59424 13.7288 2.04195 13.7288 2.59424C13.7288 3.97495 14.8481 5.09424 16.2288 5.09424H16.8182C17.6558 5.09424 18.2616 5.71734 18.2335 6.45242C18.1544 8.51717 17.7518 11.7129 16.2315 14.4834C15.8425 15.1922 15.304 15.9211 14.6879 16.6329C13.6778 17.7999 12.9957 18.5815 12.2987 19.0921C11.6512 19.5665 10.9888 19.805 10 19.805C9.0112 19.805 8.34886 19.5665 7.70131 19.0921C7.00433 18.5815 6.32224 17.7999 5.31212 16.6329C4.69604 15.9211 4.15747 15.1922 3.76853 14.4834C2.29005 11.789 1.86972 8.90582 1.77427 7.01509C1.73795 6.29573 2.3305 5.67757 3.17064 5.67757H3.4795C5.0213 5.67757 6.27117 4.4277 6.27117 2.8859Z" stroke="white"/>
</svg>
