<svg width="20" height="20" viewBox="0 0 20 20" fill="none" xmlns="http://www.w3.org/2000/svg">
<g clip-path="url(#clip0_1315_1921)">
<path d="M7.12434 3.75597C8.02955 0.970016 11.9709 0.970016 12.8761 3.75597C13.281 5.00188 14.442 5.84543 15.752 5.84543C18.6814 5.84543 19.8993 9.5939 17.5294 11.3157C16.4696 12.0857 16.0261 13.4506 16.4309 14.6965C17.3362 17.4825 14.1475 19.7992 11.7776 18.0774C10.7178 17.3073 9.28268 17.3073 8.22284 18.0774C5.85297 19.7992 2.66433 17.4825 3.56954 14.6965C3.97436 13.4506 3.53088 12.0857 2.47104 11.3157C0.101171 9.5939 1.31912 5.84543 4.24844 5.84543C5.55848 5.84543 6.71952 5.00188 7.12434 3.75597Z" stroke="#FFAD0E" stroke-width="1.5"/>
</g>
<defs>
<clipPath id="clip0_1315_1921">
<rect width="20" height="20" fill="white"/>
</clipPath>
</defs>
</svg>
