<svg width="20" height="21" viewBox="0 0 20 21" fill="none" xmlns="http://www.w3.org/2000/svg">
<path d="M7.12434 4.25609C8.02955 1.47014 11.9709 1.47014 12.8761 4.25609C13.281 5.502 14.442 6.34555 15.752 6.34555C18.6814 6.34555 19.8993 10.094 17.5294 11.8158C16.4696 12.5858 16.0261 13.9507 16.4309 15.1967C17.3362 17.9826 14.1475 20.2993 11.7776 18.5775C10.7178 17.8075 9.28268 17.8075 8.22284 18.5775C5.85297 20.2993 2.66433 17.9826 3.56954 15.1967C3.97436 13.9507 3.53088 12.5859 2.47104 11.8158C0.101171 10.094 1.31912 6.34555 4.24844 6.34555C5.55848 6.34555 6.71952 5.502 7.12434 4.25609Z" stroke="#FF124B" stroke-width="1.5"/>
</svg>
