<svg width="10" height="6" viewBox="0 0 10 6" fill="none" xmlns="http://www.w3.org/2000/svg">
<path d="M4.81759 1.97006C4.9385 1.95464 5.06085 1.95464 5.18176 1.97006C5.37433 1.9946 5.58934 2.08683 5.92409 2.35566C6.26869 2.63241 6.67539 3.04141 7.26634 3.63765L8.72243 5.1068C8.96542 5.35196 9.36114 5.35373 9.60631 5.11074C9.85147 4.86775 9.85324 4.47203 9.61025 4.22686L8.12792 2.73125C7.56964 2.16794 7.11335 1.70755 6.70679 1.38104C6.28402 1.04152 5.8549 0.795742 5.33981 0.730087C5.11395 0.701299 4.8854 0.701299 4.65954 0.730087C4.14444 0.795742 3.71533 1.04152 3.29256 1.38104C2.886 1.70755 2.42971 2.16795 1.87142 2.73126L0.389099 4.22686C0.146112 4.47203 0.147878 4.86775 0.393042 5.11074C0.638206 5.35373 1.03393 5.35196 1.27692 5.1068L2.73301 3.63765C3.32395 3.04141 3.73066 2.63241 4.07526 2.35566C4.41001 2.08683 4.62502 1.9946 4.81759 1.97006Z" fill="#00CD46"/>
</svg>
