<svg width="22" height="22" viewBox="0 0 22 22" fill="none" xmlns="http://www.w3.org/2000/svg">
<path fill-rule="evenodd" clip-rule="evenodd" d="M10.9999 3.24993C8.37656 3.24993 6.24991 5.37658 6.24991 7.99993C6.24991 10.6233 8.37656 12.7499 10.9999 12.7499C13.6233 12.7499 15.7499 10.6233 15.7499 7.99993C15.7499 5.37658 13.6233 3.24993 10.9999 3.24993ZM7.74991 7.99993C7.74991 6.20501 9.20499 4.74994 10.9999 4.74994C12.7948 4.74994 14.2499 6.20501 14.2499 7.99993C14.2499 9.79486 12.7948 11.2499 10.9999 11.2499C9.20499 11.2499 7.74991 9.79486 7.74991 7.99993Z" fill="#00C28C"/>
<path fill-rule="evenodd" clip-rule="evenodd" d="M11.285 0.0305112C11.0951 0.0210796 10.9048 0.0210796 10.7148 0.0305112C9.98142 0.0669215 9.30626 0.280012 8.5536 0.629287C7.82088 0.969313 6.96945 1.46089 5.89228 2.0828L5.83127 2.11803C4.7541 2.73993 3.90266 3.2315 3.24182 3.69604C2.56301 4.17323 2.04089 4.65139 1.64268 5.26829C1.53952 5.4281 1.44437 5.59292 1.35755 5.76215C1.0224 6.41546 0.86936 7.10672 0.795513 7.93318C0.723622 8.73775 0.723627 9.7209 0.723633 10.9647V11.0352C0.723627 12.279 0.723622 13.2621 0.795513 14.0667C0.86936 14.8931 1.0224 15.5844 1.35755 16.2377C1.44436 16.407 1.53952 16.5718 1.64268 16.7316C2.13094 17.488 2.80768 18.038 3.7297 18.6308C4.30574 19.0011 5.00655 19.4057 5.84745 19.8912L5.89226 19.9171C6.96944 20.539 7.82087 21.0306 8.5536 21.3706C9.30626 21.7199 9.98142 21.9329 10.7148 21.9694C10.9048 21.9788 11.0951 21.9788 11.285 21.9694C12.0184 21.9329 12.6936 21.7199 13.4462 21.3706C14.179 21.0306 15.0304 20.539 16.1076 19.9171L16.153 19.8908C17.0018 19.4008 17.708 18.9931 18.2873 18.6197C19.2005 18.0312 19.8719 17.4834 20.3571 16.7316C20.4603 16.5718 20.5555 16.407 20.6423 16.2377C20.9774 15.5844 21.1305 14.8931 21.2043 14.0667C21.2762 13.2621 21.2762 12.279 21.2762 11.0352V10.9647C21.2762 9.72094 21.2762 8.73774 21.2043 7.93318C21.1305 7.10672 20.9774 6.41546 20.6423 5.76215C20.5555 5.59292 20.4603 5.42809 20.3571 5.26829C19.9589 4.65139 19.4368 4.17323 18.758 3.69604C18.0972 3.2315 17.2457 2.73993 16.1686 2.11803L16.1075 2.0828C15.0304 1.46089 14.1789 0.969313 13.4462 0.629287C12.6936 0.280012 12.0184 0.0669215 11.285 0.0305112ZM10.7892 1.52867C10.9296 1.52169 11.0702 1.52169 11.2107 1.52867C11.6835 1.55214 12.1629 1.6874 12.8148 1.98992C13.4797 2.29848 14.2737 2.75606 15.3881 3.39945C16.5024 4.04285 17.2957 4.50162 17.8954 4.92318C18.4833 5.33648 18.8402 5.68405 19.0969 6.08179C19.1731 6.1999 19.2435 6.32173 19.3076 6.44681C19.5237 6.86803 19.6463 7.35086 19.7103 8.06668C19.7755 8.7968 19.7762 9.71315 19.7762 10.9999C19.7762 12.2867 19.7755 13.2031 19.7103 13.9332C19.6463 14.649 19.5237 15.1318 19.3076 15.5531C19.2435 15.6781 19.1731 15.8 19.0969 15.9181C18.8921 16.2353 18.6245 16.5197 18.2269 16.8314C17.4391 15.2989 15.8427 14.2499 13.9999 14.2499H7.99991C6.1571 14.2499 4.5607 15.2989 3.77295 16.8314C3.37531 16.5198 3.10774 16.2354 2.90293 15.9181C2.82668 15.8 2.75635 15.6781 2.69218 15.5531C2.4761 15.1318 2.35352 14.649 2.28956 13.9332C2.22432 13.2031 2.22363 12.2867 2.22363 10.9999C2.22363 9.71315 2.22432 8.7968 2.28956 8.06668C2.35352 7.35086 2.4761 6.86803 2.69218 6.44681C2.75635 6.32173 2.82668 6.1999 2.90293 6.08179C3.15967 5.68405 3.51653 5.33648 4.10446 4.92318C4.70414 4.50162 5.49738 4.04285 6.61177 3.39945C7.72616 2.75606 8.52009 2.29848 9.18501 1.98992C9.83691 1.6874 10.3163 1.55214 10.7892 1.52867ZM13.9999 15.7499C15.322 15.7499 16.4611 16.5398 16.9685 17.6746C16.5238 17.9446 16.0044 18.2446 15.3881 18.6004C14.2737 19.2438 13.4797 19.7014 12.8148 20.01C12.1629 20.3125 11.6835 20.4477 11.2107 20.4712C11.0702 20.4782 10.9296 20.4782 10.7892 20.4712C10.3163 20.4477 9.83691 20.3125 9.18501 20.01C8.52009 19.7014 7.72616 19.2438 6.61177 18.6004C5.99549 18.2446 5.47609 17.9446 5.03131 17.6746C5.53867 16.5399 6.67782 15.7499 7.99991 15.7499H13.9999Z" fill="#00C28C"/>
<path fill-rule="evenodd" clip-rule="evenodd" d="M10.9999 3.24993C8.37656 3.24993 6.24991 5.37658 6.24991 7.99993C6.24991 10.6233 8.37656 12.7499 10.9999 12.7499C13.6233 12.7499 15.7499 10.6233 15.7499 7.99993C15.7499 5.37658 13.6233 3.24993 10.9999 3.24993ZM7.74991 7.99993C7.74991 6.20501 9.20499 4.74994 10.9999 4.74994C12.7948 4.74994 14.2499 6.20501 14.2499 7.99993C14.2499 9.79486 12.7948 11.2499 10.9999 11.2499C9.20499 11.2499 7.74991 9.79486 7.74991 7.99993Z" stroke="#00C28C"/>
<path fill-rule="evenodd" clip-rule="evenodd" d="M11.285 0.0305112C11.0951 0.0210796 10.9048 0.0210796 10.7148 0.0305112C9.98142 0.0669215 9.30626 0.280012 8.5536 0.629287C7.82088 0.969313 6.96945 1.46089 5.89228 2.0828L5.83127 2.11803C4.7541 2.73993 3.90266 3.2315 3.24182 3.69604C2.56301 4.17323 2.04089 4.65139 1.64268 5.26829C1.53952 5.4281 1.44437 5.59292 1.35755 5.76215C1.0224 6.41546 0.86936 7.10672 0.795513 7.93318C0.723622 8.73775 0.723627 9.7209 0.723633 10.9647V11.0352C0.723627 12.279 0.723622 13.2621 0.795513 14.0667C0.86936 14.8931 1.0224 15.5844 1.35755 16.2377C1.44436 16.407 1.53952 16.5718 1.64268 16.7316C2.13094 17.488 2.80768 18.038 3.7297 18.6308C4.30574 19.0011 5.00655 19.4057 5.84745 19.8912L5.89226 19.9171C6.96944 20.539 7.82087 21.0306 8.5536 21.3706C9.30626 21.7199 9.98142 21.9329 10.7148 21.9694C10.9048 21.9788 11.0951 21.9788 11.285 21.9694C12.0184 21.9329 12.6936 21.7199 13.4462 21.3706C14.179 21.0306 15.0304 20.539 16.1076 19.9171L16.153 19.8908C17.0018 19.4008 17.708 18.9931 18.2873 18.6197C19.2005 18.0312 19.8719 17.4834 20.3571 16.7316C20.4603 16.5718 20.5555 16.407 20.6423 16.2377C20.9774 15.5844 21.1305 14.8931 21.2043 14.0667C21.2762 13.2621 21.2762 12.279 21.2762 11.0352V10.9647C21.2762 9.72094 21.2762 8.73774 21.2043 7.93318C21.1305 7.10672 20.9774 6.41546 20.6423 5.76215C20.5555 5.59292 20.4603 5.42809 20.3571 5.26829C19.9589 4.65139 19.4368 4.17323 18.758 3.69604C18.0972 3.2315 17.2457 2.73993 16.1686 2.11803L16.1075 2.0828C15.0304 1.46089 14.1789 0.969313 13.4462 0.629287C12.6936 0.280012 12.0184 0.0669215 11.285 0.0305112ZM10.7892 1.52867C10.9296 1.52169 11.0702 1.52169 11.2107 1.52867C11.6835 1.55214 12.1629 1.6874 12.8148 1.98992C13.4797 2.29848 14.2737 2.75606 15.3881 3.39945C16.5024 4.04285 17.2957 4.50162 17.8954 4.92318C18.4833 5.33648 18.8402 5.68405 19.0969 6.08179C19.1731 6.1999 19.2435 6.32173 19.3076 6.44681C19.5237 6.86803 19.6463 7.35086 19.7103 8.06668C19.7755 8.7968 19.7762 9.71315 19.7762 10.9999C19.7762 12.2867 19.7755 13.2031 19.7103 13.9332C19.6463 14.649 19.5237 15.1318 19.3076 15.5531C19.2435 15.6781 19.1731 15.8 19.0969 15.9181C18.8921 16.2353 18.6245 16.5197 18.2269 16.8314C17.4391 15.2989 15.8427 14.2499 13.9999 14.2499H7.99991C6.1571 14.2499 4.5607 15.2989 3.77295 16.8314C3.37531 16.5198 3.10774 16.2354 2.90293 15.9181C2.82668 15.8 2.75635 15.6781 2.69218 15.5531C2.4761 15.1318 2.35352 14.649 2.28956 13.9332C2.22432 13.2031 2.22363 12.2867 2.22363 10.9999C2.22363 9.71315 2.22432 8.7968 2.28956 8.06668C2.35352 7.35086 2.4761 6.86803 2.69218 6.44681C2.75635 6.32173 2.82668 6.1999 2.90293 6.08179C3.15967 5.68405 3.51653 5.33648 4.10446 4.92318C4.70414 4.50162 5.49738 4.04285 6.61177 3.39945C7.72616 2.75606 8.52009 2.29848 9.18501 1.98992C9.83691 1.6874 10.3163 1.55214 10.7892 1.52867ZM13.9999 15.7499C15.322 15.7499 16.4611 16.5398 16.9685 17.6746C16.5238 17.9446 16.0044 18.2446 15.3881 18.6004C14.2737 19.2438 13.4797 19.7014 12.8148 20.01C12.1629 20.3125 11.6835 20.4477 11.2107 20.4712C11.0702 20.4782 10.9296 20.4782 10.7892 20.4712C10.3163 20.4477 9.83691 20.3125 9.18501 20.01C8.52009 19.7014 7.72616 19.2438 6.61177 18.6004C5.99549 18.2446 5.47609 17.9446 5.03131 17.6746C5.53867 16.5399 6.67782 15.7499 7.99991 15.7499H13.9999Z" stroke="#00C28C"/>
</svg>
